<?xml version="1.0" encoding="UTF-8"?>
<!--
  MogadocLab banner (portrait, 1000 × 1200)
  URL: https://rohinoy-lab.github.io/MogadocLab/
  QR embedded inline (29×29 modules, ECC level M).
  © 2026 Kanchan Sarkar & Axel Groß · Institut für Theoretische Chemie, Universität Ulm.
-->
<svg xmlns="http://www.w3.org/2000/svg" xmlns:xlink="http://www.w3.org/1999/xlink"
     viewBox="0 0 1000 1200" width="1000" height="1200"
     preserveAspectRatio="xMidYMid meet">

  <defs>
    <radialGradient id="atomC" cx="35%" cy="32%" r="65%">
      <stop offset="0%"   stop-color="#a8b3c2"/>
      <stop offset="55%"  stop-color="#4a5a6e"/>
      <stop offset="100%" stop-color="#1f2a38"/>
    </radialGradient>
    <radialGradient id="atomN" cx="35%" cy="32%" r="65%">
      <stop offset="0%"   stop-color="#7d9bd0"/>
      <stop offset="55%"  stop-color="#2a4d8c"/>
      <stop offset="100%" stop-color="#10203d"/>
    </radialGradient>
    <radialGradient id="atomO" cx="35%" cy="32%" r="65%">
      <stop offset="0%"   stop-color="#e08484"/>
      <stop offset="55%"  stop-color="#a82a2a"/>
      <stop offset="100%" stop-color="#4d1010"/>
    </radialGradient>
  </defs>

  <!-- Entire banner is a single hyperlink. -->
  <a href="https://rohinoy-lab.github.io/MogadocLab/"
     xlink:href="https://rohinoy-lab.github.io/MogadocLab/"
     target="_blank" rel="noopener">

    <!-- Paper background + outer hairline frame -->
    <rect width="1000" height="1200" fill="#fbfcfd"/>
    <rect x="14" y="14" width="972" height="1172"
          fill="none" stroke="#dde3eb" stroke-width="1"/>

    <!-- ═══ HEADER (title + subtitle on the left, QR on the right) ═══ -->
    <text x="60" y="135"
          font-family="'Playfair Display','Source Serif Pro',Georgia,serif"
          font-size="72" font-weight="800" fill="#0a1929"
          letter-spacing="-0.5">MogadocLab</text>
    <text x="60" y="174"
          font-family="'DM Sans','Helvetica Neue',Arial,sans-serif"
          font-size="20" font-weight="500" fill="#1e4d8c" letter-spacing="0.4">
      3D Molecular Viewer
    </text>
    <line x1="60" y1="200" x2="320" y2="200"
          stroke="#1e4d8c" stroke-width="1.4"/>

    <!-- Status badges — "no install, online" affordance -->
    <g id="badges" transform="translate(60, 230)" font-family="'JetBrains Mono','SF Mono',Consolas,monospace"
       font-size="11" letter-spacing="2.2">
      <rect x="0"   y="0" width="148" height="26" rx="3" fill="#ffffff" stroke="#1e4d8c" stroke-width="1"/>
      <text x="74"  y="17" text-anchor="middle" fill="#1e4d8c" font-weight="600">NO INSTALL</text>
      <rect x="156" y="0" width="100" height="26" rx="3" fill="#ffffff" stroke="#1e4d8c" stroke-width="1"/>
      <text x="206" y="17" text-anchor="middle" fill="#1e4d8c" font-weight="600">ONLINE</text>
      <rect x="264" y="0" width="148" height="26" rx="3" fill="#ffffff" stroke="#1e4d8c" stroke-width="1"/>
      <text x="338" y="17" text-anchor="middle" fill="#1e4d8c" font-weight="600">OPEN ACCESS</text>
    </g>

    <!-- ═══ QR (top-right) ═══ -->
    <g id="qr">
      <rect x="830" y="80" width="120" height="120" rx="2"
            fill="#ffffff" stroke="#1e4d8c" stroke-width="1.2"/>
      <g fill="#0a1929">
        <rect x="846.5" y="96.5" width="3" height="3"/>
        <rect x="849.5" y="96.5" width="3" height="3"/>
        <rect x="852.5" y="96.5" width="3" height="3"/>
        <rect x="855.5" y="96.5" width="3" height="3"/>
        <rect x="858.5" y="96.5" width="3" height="3"/>
        <rect x="861.5" y="96.5" width="3" height="3"/>
        <rect x="864.5" y="96.5" width="3" height="3"/>
        <rect x="873.5" y="96.5" width="3" height="3"/>
        <rect x="888.5" y="96.5" width="3" height="3"/>
        <rect x="891.5" y="96.5" width="3" height="3"/>
        <rect x="903.5" y="96.5" width="3" height="3"/>
        <rect x="912.5" y="96.5" width="3" height="3"/>
        <rect x="915.5" y="96.5" width="3" height="3"/>
        <rect x="918.5" y="96.5" width="3" height="3"/>
        <rect x="921.5" y="96.5" width="3" height="3"/>
        <rect x="924.5" y="96.5" width="3" height="3"/>
        <rect x="927.5" y="96.5" width="3" height="3"/>
        <rect x="930.5" y="96.5" width="3" height="3"/>
        <rect x="846.5" y="99.5" width="3" height="3"/>
        <rect x="864.5" y="99.5" width="3" height="3"/>
        <rect x="870.5" y="99.5" width="3" height="3"/>
        <rect x="873.5" y="99.5" width="3" height="3"/>
        <rect x="879.5" y="99.5" width="3" height="3"/>
        <rect x="891.5" y="99.5" width="3" height="3"/>
        <rect x="894.5" y="99.5" width="3" height="3"/>
        <rect x="897.5" y="99.5" width="3" height="3"/>
        <rect x="900.5" y="99.5" width="3" height="3"/>
        <rect x="903.5" y="99.5" width="3" height="3"/>
        <rect x="906.5" y="99.5" width="3" height="3"/>
        <rect x="912.5" y="99.5" width="3" height="3"/>
        <rect x="930.5" y="99.5" width="3" height="3"/>
        <rect x="846.5" y="102.5" width="3" height="3"/>
        <rect x="852.5" y="102.5" width="3" height="3"/>
        <rect x="855.5" y="102.5" width="3" height="3"/>
        <rect x="858.5" y="102.5" width="3" height="3"/>
        <rect x="864.5" y="102.5" width="3" height="3"/>
        <rect x="873.5" y="102.5" width="3" height="3"/>
        <rect x="879.5" y="102.5" width="3" height="3"/>
        <rect x="882.5" y="102.5" width="3" height="3"/>
        <rect x="891.5" y="102.5" width="3" height="3"/>
        <rect x="900.5" y="102.5" width="3" height="3"/>
        <rect x="906.5" y="102.5" width="3" height="3"/>
        <rect x="912.5" y="102.5" width="3" height="3"/>
        <rect x="918.5" y="102.5" width="3" height="3"/>
        <rect x="921.5" y="102.5" width="3" height="3"/>
        <rect x="924.5" y="102.5" width="3" height="3"/>
        <rect x="930.5" y="102.5" width="3" height="3"/>
        <rect x="846.5" y="105.5" width="3" height="3"/>
        <rect x="852.5" y="105.5" width="3" height="3"/>
        <rect x="855.5" y="105.5" width="3" height="3"/>
        <rect x="858.5" y="105.5" width="3" height="3"/>
        <rect x="864.5" y="105.5" width="3" height="3"/>
        <rect x="879.5" y="105.5" width="3" height="3"/>
        <rect x="885.5" y="105.5" width="3" height="3"/>
        <rect x="888.5" y="105.5" width="3" height="3"/>
        <rect x="900.5" y="105.5" width="3" height="3"/>
        <rect x="912.5" y="105.5" width="3" height="3"/>
        <rect x="918.5" y="105.5" width="3" height="3"/>
        <rect x="921.5" y="105.5" width="3" height="3"/>
        <rect x="924.5" y="105.5" width="3" height="3"/>
        <rect x="930.5" y="105.5" width="3" height="3"/>
        <rect x="846.5" y="108.5" width="3" height="3"/>
        <rect x="852.5" y="108.5" width="3" height="3"/>
        <rect x="855.5" y="108.5" width="3" height="3"/>
        <rect x="858.5" y="108.5" width="3" height="3"/>
        <rect x="864.5" y="108.5" width="3" height="3"/>
        <rect x="870.5" y="108.5" width="3" height="3"/>
        <rect x="879.5" y="108.5" width="3" height="3"/>
        <rect x="882.5" y="108.5" width="3" height="3"/>
        <rect x="885.5" y="108.5" width="3" height="3"/>
        <rect x="888.5" y="108.5" width="3" height="3"/>
        <rect x="891.5" y="108.5" width="3" height="3"/>
        <rect x="897.5" y="108.5" width="3" height="3"/>
        <rect x="900.5" y="108.5" width="3" height="3"/>
        <rect x="903.5" y="108.5" width="3" height="3"/>
        <rect x="912.5" y="108.5" width="3" height="3"/>
        <rect x="918.5" y="108.5" width="3" height="3"/>
        <rect x="921.5" y="108.5" width="3" height="3"/>
        <rect x="924.5" y="108.5" width="3" height="3"/>
        <rect x="930.5" y="108.5" width="3" height="3"/>
        <rect x="846.5" y="111.5" width="3" height="3"/>
        <rect x="864.5" y="111.5" width="3" height="3"/>
        <rect x="873.5" y="111.5" width="3" height="3"/>
        <rect x="879.5" y="111.5" width="3" height="3"/>
        <rect x="882.5" y="111.5" width="3" height="3"/>
        <rect x="885.5" y="111.5" width="3" height="3"/>
        <rect x="888.5" y="111.5" width="3" height="3"/>
        <rect x="891.5" y="111.5" width="3" height="3"/>
        <rect x="897.5" y="111.5" width="3" height="3"/>
        <rect x="903.5" y="111.5" width="3" height="3"/>
        <rect x="906.5" y="111.5" width="3" height="3"/>
        <rect x="912.5" y="111.5" width="3" height="3"/>
        <rect x="930.5" y="111.5" width="3" height="3"/>
        <rect x="846.5" y="114.5" width="3" height="3"/>
        <rect x="849.5" y="114.5" width="3" height="3"/>
        <rect x="852.5" y="114.5" width="3" height="3"/>
        <rect x="855.5" y="114.5" width="3" height="3"/>
        <rect x="858.5" y="114.5" width="3" height="3"/>
        <rect x="861.5" y="114.5" width="3" height="3"/>
        <rect x="864.5" y="114.5" width="3" height="3"/>
        <rect x="870.5" y="114.5" width="3" height="3"/>
        <rect x="876.5" y="114.5" width="3" height="3"/>
        <rect x="882.5" y="114.5" width="3" height="3"/>
        <rect x="888.5" y="114.5" width="3" height="3"/>
        <rect x="894.5" y="114.5" width="3" height="3"/>
        <rect x="900.5" y="114.5" width="3" height="3"/>
        <rect x="906.5" y="114.5" width="3" height="3"/>
        <rect x="912.5" y="114.5" width="3" height="3"/>
        <rect x="915.5" y="114.5" width="3" height="3"/>
        <rect x="918.5" y="114.5" width="3" height="3"/>
        <rect x="921.5" y="114.5" width="3" height="3"/>
        <rect x="924.5" y="114.5" width="3" height="3"/>
        <rect x="927.5" y="114.5" width="3" height="3"/>
        <rect x="930.5" y="114.5" width="3" height="3"/>
        <rect x="873.5" y="117.5" width="3" height="3"/>
        <rect x="876.5" y="117.5" width="3" height="3"/>
        <rect x="879.5" y="117.5" width="3" height="3"/>
        <rect x="882.5" y="117.5" width="3" height="3"/>
        <rect x="885.5" y="117.5" width="3" height="3"/>
        <rect x="891.5" y="117.5" width="3" height="3"/>
        <rect x="894.5" y="117.5" width="3" height="3"/>
        <rect x="897.5" y="117.5" width="3" height="3"/>
        <rect x="906.5" y="117.5" width="3" height="3"/>
        <rect x="846.5" y="120.5" width="3" height="3"/>
        <rect x="852.5" y="120.5" width="3" height="3"/>
        <rect x="858.5" y="120.5" width="3" height="3"/>
        <rect x="864.5" y="120.5" width="3" height="3"/>
        <rect x="876.5" y="120.5" width="3" height="3"/>
        <rect x="879.5" y="120.5" width="3" height="3"/>
        <rect x="882.5" y="120.5" width="3" height="3"/>
        <rect x="885.5" y="120.5" width="3" height="3"/>
        <rect x="894.5" y="120.5" width="3" height="3"/>
        <rect x="897.5" y="120.5" width="3" height="3"/>
        <rect x="906.5" y="120.5" width="3" height="3"/>
        <rect x="918.5" y="120.5" width="3" height="3"/>
        <rect x="927.5" y="120.5" width="3" height="3"/>
        <rect x="846.5" y="123.5" width="3" height="3"/>
        <rect x="849.5" y="123.5" width="3" height="3"/>
        <rect x="852.5" y="123.5" width="3" height="3"/>
        <rect x="855.5" y="123.5" width="3" height="3"/>
        <rect x="861.5" y="123.5" width="3" height="3"/>
        <rect x="870.5" y="123.5" width="3" height="3"/>
        <rect x="873.5" y="123.5" width="3" height="3"/>
        <rect x="876.5" y="123.5" width="3" height="3"/>
        <rect x="885.5" y="123.5" width="3" height="3"/>
        <rect x="894.5" y="123.5" width="3" height="3"/>
        <rect x="897.5" y="123.5" width="3" height="3"/>
        <rect x="900.5" y="123.5" width="3" height="3"/>
        <rect x="906.5" y="123.5" width="3" height="3"/>
        <rect x="909.5" y="123.5" width="3" height="3"/>
        <rect x="912.5" y="123.5" width="3" height="3"/>
        <rect x="921.5" y="123.5" width="3" height="3"/>
        <rect x="930.5" y="123.5" width="3" height="3"/>
        <rect x="849.5" y="126.5" width="3" height="3"/>
        <rect x="858.5" y="126.5" width="3" height="3"/>
        <rect x="864.5" y="126.5" width="3" height="3"/>
        <rect x="873.5" y="126.5" width="3" height="3"/>
        <rect x="879.5" y="126.5" width="3" height="3"/>
        <rect x="882.5" y="126.5" width="3" height="3"/>
        <rect x="888.5" y="126.5" width="3" height="3"/>
        <rect x="906.5" y="126.5" width="3" height="3"/>
        <rect x="909.5" y="126.5" width="3" height="3"/>
        <rect x="915.5" y="126.5" width="3" height="3"/>
        <rect x="918.5" y="126.5" width="3" height="3"/>
        <rect x="924.5" y="126.5" width="3" height="3"/>
        <rect x="927.5" y="126.5" width="3" height="3"/>
        <rect x="930.5" y="126.5" width="3" height="3"/>
        <rect x="846.5" y="129.5" width="3" height="3"/>
        <rect x="849.5" y="129.5" width="3" height="3"/>
        <rect x="870.5" y="129.5" width="3" height="3"/>
        <rect x="873.5" y="129.5" width="3" height="3"/>
        <rect x="876.5" y="129.5" width="3" height="3"/>
        <rect x="882.5" y="129.5" width="3" height="3"/>
        <rect x="885.5" y="129.5" width="3" height="3"/>
        <rect x="888.5" y="129.5" width="3" height="3"/>
        <rect x="891.5" y="129.5" width="3" height="3"/>
        <rect x="897.5" y="129.5" width="3" height="3"/>
        <rect x="900.5" y="129.5" width="3" height="3"/>
        <rect x="906.5" y="129.5" width="3" height="3"/>
        <rect x="909.5" y="129.5" width="3" height="3"/>
        <rect x="912.5" y="129.5" width="3" height="3"/>
        <rect x="915.5" y="129.5" width="3" height="3"/>
        <rect x="918.5" y="129.5" width="3" height="3"/>
        <rect x="927.5" y="129.5" width="3" height="3"/>
        <rect x="846.5" y="132.5" width="3" height="3"/>
        <rect x="849.5" y="132.5" width="3" height="3"/>
        <rect x="852.5" y="132.5" width="3" height="3"/>
        <rect x="855.5" y="132.5" width="3" height="3"/>
        <rect x="864.5" y="132.5" width="3" height="3"/>
        <rect x="873.5" y="132.5" width="3" height="3"/>
        <rect x="879.5" y="132.5" width="3" height="3"/>
        <rect x="882.5" y="132.5" width="3" height="3"/>
        <rect x="885.5" y="132.5" width="3" height="3"/>
        <rect x="894.5" y="132.5" width="3" height="3"/>
        <rect x="897.5" y="132.5" width="3" height="3"/>
        <rect x="903.5" y="132.5" width="3" height="3"/>
        <rect x="906.5" y="132.5" width="3" height="3"/>
        <rect x="909.5" y="132.5" width="3" height="3"/>
        <rect x="912.5" y="132.5" width="3" height="3"/>
        <rect x="921.5" y="132.5" width="3" height="3"/>
        <rect x="927.5" y="132.5" width="3" height="3"/>
        <rect x="930.5" y="132.5" width="3" height="3"/>
        <rect x="846.5" y="135.5" width="3" height="3"/>
        <rect x="849.5" y="135.5" width="3" height="3"/>
        <rect x="858.5" y="135.5" width="3" height="3"/>
        <rect x="870.5" y="135.5" width="3" height="3"/>
        <rect x="873.5" y="135.5" width="3" height="3"/>
        <rect x="885.5" y="135.5" width="3" height="3"/>
        <rect x="894.5" y="135.5" width="3" height="3"/>
        <rect x="897.5" y="135.5" width="3" height="3"/>
        <rect x="909.5" y="135.5" width="3" height="3"/>
        <rect x="912.5" y="135.5" width="3" height="3"/>
        <rect x="921.5" y="135.5" width="3" height="3"/>
        <rect x="930.5" y="135.5" width="3" height="3"/>
        <rect x="846.5" y="138.5" width="3" height="3"/>
        <rect x="849.5" y="138.5" width="3" height="3"/>
        <rect x="852.5" y="138.5" width="3" height="3"/>
        <rect x="858.5" y="138.5" width="3" height="3"/>
        <rect x="861.5" y="138.5" width="3" height="3"/>
        <rect x="864.5" y="138.5" width="3" height="3"/>
        <rect x="873.5" y="138.5" width="3" height="3"/>
        <rect x="882.5" y="138.5" width="3" height="3"/>
        <rect x="885.5" y="138.5" width="3" height="3"/>
        <rect x="888.5" y="138.5" width="3" height="3"/>
        <rect x="897.5" y="138.5" width="3" height="3"/>
        <rect x="900.5" y="138.5" width="3" height="3"/>
        <rect x="906.5" y="138.5" width="3" height="3"/>
        <rect x="909.5" y="138.5" width="3" height="3"/>
        <rect x="918.5" y="138.5" width="3" height="3"/>
        <rect x="921.5" y="138.5" width="3" height="3"/>
        <rect x="927.5" y="138.5" width="3" height="3"/>
        <rect x="930.5" y="138.5" width="3" height="3"/>
        <rect x="846.5" y="141.5" width="3" height="3"/>
        <rect x="849.5" y="141.5" width="3" height="3"/>
        <rect x="855.5" y="141.5" width="3" height="3"/>
        <rect x="858.5" y="141.5" width="3" height="3"/>
        <rect x="867.5" y="141.5" width="3" height="3"/>
        <rect x="870.5" y="141.5" width="3" height="3"/>
        <rect x="873.5" y="141.5" width="3" height="3"/>
        <rect x="876.5" y="141.5" width="3" height="3"/>
        <rect x="879.5" y="141.5" width="3" height="3"/>
        <rect x="882.5" y="141.5" width="3" height="3"/>
        <rect x="885.5" y="141.5" width="3" height="3"/>
        <rect x="894.5" y="141.5" width="3" height="3"/>
        <rect x="897.5" y="141.5" width="3" height="3"/>
        <rect x="912.5" y="141.5" width="3" height="3"/>
        <rect x="915.5" y="141.5" width="3" height="3"/>
        <rect x="918.5" y="141.5" width="3" height="3"/>
        <rect x="921.5" y="141.5" width="3" height="3"/>
        <rect x="927.5" y="141.5" width="3" height="3"/>
        <rect x="861.5" y="144.5" width="3" height="3"/>
        <rect x="864.5" y="144.5" width="3" height="3"/>
        <rect x="870.5" y="144.5" width="3" height="3"/>
        <rect x="873.5" y="144.5" width="3" height="3"/>
        <rect x="876.5" y="144.5" width="3" height="3"/>
        <rect x="885.5" y="144.5" width="3" height="3"/>
        <rect x="888.5" y="144.5" width="3" height="3"/>
        <rect x="894.5" y="144.5" width="3" height="3"/>
        <rect x="897.5" y="144.5" width="3" height="3"/>
        <rect x="900.5" y="144.5" width="3" height="3"/>
        <rect x="906.5" y="144.5" width="3" height="3"/>
        <rect x="909.5" y="144.5" width="3" height="3"/>
        <rect x="912.5" y="144.5" width="3" height="3"/>
        <rect x="921.5" y="144.5" width="3" height="3"/>
        <rect x="927.5" y="144.5" width="3" height="3"/>
        <rect x="930.5" y="144.5" width="3" height="3"/>
        <rect x="852.5" y="147.5" width="3" height="3"/>
        <rect x="855.5" y="147.5" width="3" height="3"/>
        <rect x="867.5" y="147.5" width="3" height="3"/>
        <rect x="873.5" y="147.5" width="3" height="3"/>
        <rect x="879.5" y="147.5" width="3" height="3"/>
        <rect x="882.5" y="147.5" width="3" height="3"/>
        <rect x="894.5" y="147.5" width="3" height="3"/>
        <rect x="906.5" y="147.5" width="3" height="3"/>
        <rect x="912.5" y="147.5" width="3" height="3"/>
        <rect x="921.5" y="147.5" width="3" height="3"/>
        <rect x="924.5" y="147.5" width="3" height="3"/>
        <rect x="930.5" y="147.5" width="3" height="3"/>
        <rect x="846.5" y="150.5" width="3" height="3"/>
        <rect x="852.5" y="150.5" width="3" height="3"/>
        <rect x="861.5" y="150.5" width="3" height="3"/>
        <rect x="864.5" y="150.5" width="3" height="3"/>
        <rect x="873.5" y="150.5" width="3" height="3"/>
        <rect x="879.5" y="150.5" width="3" height="3"/>
        <rect x="882.5" y="150.5" width="3" height="3"/>
        <rect x="885.5" y="150.5" width="3" height="3"/>
        <rect x="897.5" y="150.5" width="3" height="3"/>
        <rect x="915.5" y="150.5" width="3" height="3"/>
        <rect x="927.5" y="150.5" width="3" height="3"/>
        <rect x="930.5" y="150.5" width="3" height="3"/>
        <rect x="849.5" y="153.5" width="3" height="3"/>
        <rect x="873.5" y="153.5" width="3" height="3"/>
        <rect x="876.5" y="153.5" width="3" height="3"/>
        <rect x="885.5" y="153.5" width="3" height="3"/>
        <rect x="888.5" y="153.5" width="3" height="3"/>
        <rect x="894.5" y="153.5" width="3" height="3"/>
        <rect x="897.5" y="153.5" width="3" height="3"/>
        <rect x="903.5" y="153.5" width="3" height="3"/>
        <rect x="918.5" y="153.5" width="3" height="3"/>
        <rect x="921.5" y="153.5" width="3" height="3"/>
        <rect x="927.5" y="153.5" width="3" height="3"/>
        <rect x="846.5" y="156.5" width="3" height="3"/>
        <rect x="855.5" y="156.5" width="3" height="3"/>
        <rect x="858.5" y="156.5" width="3" height="3"/>
        <rect x="864.5" y="156.5" width="3" height="3"/>
        <rect x="867.5" y="156.5" width="3" height="3"/>
        <rect x="870.5" y="156.5" width="3" height="3"/>
        <rect x="879.5" y="156.5" width="3" height="3"/>
        <rect x="888.5" y="156.5" width="3" height="3"/>
        <rect x="891.5" y="156.5" width="3" height="3"/>
        <rect x="894.5" y="156.5" width="3" height="3"/>
        <rect x="897.5" y="156.5" width="3" height="3"/>
        <rect x="906.5" y="156.5" width="3" height="3"/>
        <rect x="909.5" y="156.5" width="3" height="3"/>
        <rect x="912.5" y="156.5" width="3" height="3"/>
        <rect x="915.5" y="156.5" width="3" height="3"/>
        <rect x="918.5" y="156.5" width="3" height="3"/>
        <rect x="870.5" y="159.5" width="3" height="3"/>
        <rect x="876.5" y="159.5" width="3" height="3"/>
        <rect x="882.5" y="159.5" width="3" height="3"/>
        <rect x="894.5" y="159.5" width="3" height="3"/>
        <rect x="903.5" y="159.5" width="3" height="3"/>
        <rect x="906.5" y="159.5" width="3" height="3"/>
        <rect x="918.5" y="159.5" width="3" height="3"/>
        <rect x="924.5" y="159.5" width="3" height="3"/>
        <rect x="927.5" y="159.5" width="3" height="3"/>
        <rect x="930.5" y="159.5" width="3" height="3"/>
        <rect x="846.5" y="162.5" width="3" height="3"/>
        <rect x="849.5" y="162.5" width="3" height="3"/>
        <rect x="852.5" y="162.5" width="3" height="3"/>
        <rect x="855.5" y="162.5" width="3" height="3"/>
        <rect x="858.5" y="162.5" width="3" height="3"/>
        <rect x="861.5" y="162.5" width="3" height="3"/>
        <rect x="864.5" y="162.5" width="3" height="3"/>
        <rect x="873.5" y="162.5" width="3" height="3"/>
        <rect x="885.5" y="162.5" width="3" height="3"/>
        <rect x="900.5" y="162.5" width="3" height="3"/>
        <rect x="903.5" y="162.5" width="3" height="3"/>
        <rect x="906.5" y="162.5" width="3" height="3"/>
        <rect x="912.5" y="162.5" width="3" height="3"/>
        <rect x="918.5" y="162.5" width="3" height="3"/>
        <rect x="921.5" y="162.5" width="3" height="3"/>
        <rect x="927.5" y="162.5" width="3" height="3"/>
        <rect x="930.5" y="162.5" width="3" height="3"/>
        <rect x="846.5" y="165.5" width="3" height="3"/>
        <rect x="864.5" y="165.5" width="3" height="3"/>
        <rect x="873.5" y="165.5" width="3" height="3"/>
        <rect x="882.5" y="165.5" width="3" height="3"/>
        <rect x="891.5" y="165.5" width="3" height="3"/>
        <rect x="894.5" y="165.5" width="3" height="3"/>
        <rect x="897.5" y="165.5" width="3" height="3"/>
        <rect x="900.5" y="165.5" width="3" height="3"/>
        <rect x="906.5" y="165.5" width="3" height="3"/>
        <rect x="918.5" y="165.5" width="3" height="3"/>
        <rect x="921.5" y="165.5" width="3" height="3"/>
        <rect x="846.5" y="168.5" width="3" height="3"/>
        <rect x="852.5" y="168.5" width="3" height="3"/>
        <rect x="855.5" y="168.5" width="3" height="3"/>
        <rect x="858.5" y="168.5" width="3" height="3"/>
        <rect x="864.5" y="168.5" width="3" height="3"/>
        <rect x="870.5" y="168.5" width="3" height="3"/>
        <rect x="873.5" y="168.5" width="3" height="3"/>
        <rect x="882.5" y="168.5" width="3" height="3"/>
        <rect x="891.5" y="168.5" width="3" height="3"/>
        <rect x="894.5" y="168.5" width="3" height="3"/>
        <rect x="897.5" y="168.5" width="3" height="3"/>
        <rect x="906.5" y="168.5" width="3" height="3"/>
        <rect x="909.5" y="168.5" width="3" height="3"/>
        <rect x="912.5" y="168.5" width="3" height="3"/>
        <rect x="915.5" y="168.5" width="3" height="3"/>
        <rect x="918.5" y="168.5" width="3" height="3"/>
        <rect x="846.5" y="171.5" width="3" height="3"/>
        <rect x="852.5" y="171.5" width="3" height="3"/>
        <rect x="855.5" y="171.5" width="3" height="3"/>
        <rect x="858.5" y="171.5" width="3" height="3"/>
        <rect x="864.5" y="171.5" width="3" height="3"/>
        <rect x="873.5" y="171.5" width="3" height="3"/>
        <rect x="876.5" y="171.5" width="3" height="3"/>
        <rect x="879.5" y="171.5" width="3" height="3"/>
        <rect x="882.5" y="171.5" width="3" height="3"/>
        <rect x="885.5" y="171.5" width="3" height="3"/>
        <rect x="891.5" y="171.5" width="3" height="3"/>
        <rect x="894.5" y="171.5" width="3" height="3"/>
        <rect x="903.5" y="171.5" width="3" height="3"/>
        <rect x="909.5" y="171.5" width="3" height="3"/>
        <rect x="915.5" y="171.5" width="3" height="3"/>
        <rect x="918.5" y="171.5" width="3" height="3"/>
        <rect x="924.5" y="171.5" width="3" height="3"/>
        <rect x="927.5" y="171.5" width="3" height="3"/>
        <rect x="930.5" y="171.5" width="3" height="3"/>
        <rect x="846.5" y="174.5" width="3" height="3"/>
        <rect x="852.5" y="174.5" width="3" height="3"/>
        <rect x="855.5" y="174.5" width="3" height="3"/>
        <rect x="858.5" y="174.5" width="3" height="3"/>
        <rect x="864.5" y="174.5" width="3" height="3"/>
        <rect x="870.5" y="174.5" width="3" height="3"/>
        <rect x="873.5" y="174.5" width="3" height="3"/>
        <rect x="882.5" y="174.5" width="3" height="3"/>
        <rect x="897.5" y="174.5" width="3" height="3"/>
        <rect x="903.5" y="174.5" width="3" height="3"/>
        <rect x="915.5" y="174.5" width="3" height="3"/>
        <rect x="918.5" y="174.5" width="3" height="3"/>
        <rect x="921.5" y="174.5" width="3" height="3"/>
        <rect x="930.5" y="174.5" width="3" height="3"/>
        <rect x="846.5" y="177.5" width="3" height="3"/>
        <rect x="864.5" y="177.5" width="3" height="3"/>
        <rect x="876.5" y="177.5" width="3" height="3"/>
        <rect x="882.5" y="177.5" width="3" height="3"/>
        <rect x="894.5" y="177.5" width="3" height="3"/>
        <rect x="897.5" y="177.5" width="3" height="3"/>
        <rect x="900.5" y="177.5" width="3" height="3"/>
        <rect x="903.5" y="177.5" width="3" height="3"/>
        <rect x="906.5" y="177.5" width="3" height="3"/>
        <rect x="912.5" y="177.5" width="3" height="3"/>
        <rect x="915.5" y="177.5" width="3" height="3"/>
        <rect x="918.5" y="177.5" width="3" height="3"/>
        <rect x="927.5" y="177.5" width="3" height="3"/>
        <rect x="846.5" y="180.5" width="3" height="3"/>
        <rect x="849.5" y="180.5" width="3" height="3"/>
        <rect x="852.5" y="180.5" width="3" height="3"/>
        <rect x="855.5" y="180.5" width="3" height="3"/>
        <rect x="858.5" y="180.5" width="3" height="3"/>
        <rect x="861.5" y="180.5" width="3" height="3"/>
        <rect x="864.5" y="180.5" width="3" height="3"/>
        <rect x="870.5" y="180.5" width="3" height="3"/>
        <rect x="876.5" y="180.5" width="3" height="3"/>
        <rect x="879.5" y="180.5" width="3" height="3"/>
        <rect x="882.5" y="180.5" width="3" height="3"/>
        <rect x="885.5" y="180.5" width="3" height="3"/>
        <rect x="888.5" y="180.5" width="3" height="3"/>
        <rect x="891.5" y="180.5" width="3" height="3"/>
        <rect x="894.5" y="180.5" width="3" height="3"/>
        <rect x="897.5" y="180.5" width="3" height="3"/>
        <rect x="900.5" y="180.5" width="3" height="3"/>
        <rect x="903.5" y="180.5" width="3" height="3"/>
        <rect x="906.5" y="180.5" width="3" height="3"/>
        <rect x="909.5" y="180.5" width="3" height="3"/>
        <rect x="912.5" y="180.5" width="3" height="3"/>
        <rect x="918.5" y="180.5" width="3" height="3"/>
        <rect x="921.5" y="180.5" width="3" height="3"/>
        <rect x="927.5" y="180.5" width="3" height="3"/>
        <rect x="930.5" y="180.5" width="3" height="3"/>
      </g>
      <text x="890.0" y="218" text-anchor="middle"
            font-family="'JetBrains Mono','SF Mono',Consolas,monospace"
            font-size="10" letter-spacing="2.4" fill="#7a8a9c">SCAN TO LAUNCH</text>
    </g>

    <!-- ═══ MOLECULE (centered, paracetamol ball-and-stick) ═══ -->
    <g id="molecule">
      <line x1="500.0" y1="510.0" x2="595.3" y2="565.0" stroke="#5c7090" stroke-width="3.5" stroke-linecap="round"/>
      <line x1="595.3" y1="565.0" x2="595.3" y2="675.0" stroke="#5c7090" stroke-width="3.5" stroke-linecap="round"/>
      <line x1="588.3" y1="570.0" x2="588.3" y2="670.0" stroke="#5c7090" stroke-width="2.5" stroke-linecap="round"/>
      <line x1="595.3" y1="675.0" x2="500.0" y2="730.0" stroke="#5c7090" stroke-width="3.5" stroke-linecap="round"/>
      <line x1="500.0" y1="730.0" x2="404.7" y2="675.0" stroke="#5c7090" stroke-width="3.5" stroke-linecap="round"/>
      <line x1="499.2" y1="721.4" x2="412.6" y2="671.4" stroke="#5c7090" stroke-width="2.5" stroke-linecap="round"/>
      <line x1="404.7" y1="675.0" x2="404.7" y2="565.0" stroke="#5c7090" stroke-width="3.5" stroke-linecap="round"/>
      <line x1="404.7" y1="565.0" x2="500.0" y2="510.0" stroke="#5c7090" stroke-width="3.5" stroke-linecap="round"/>
      <line x1="412.6" y1="568.6" x2="499.2" y2="518.6" stroke="#5c7090" stroke-width="2.5" stroke-linecap="round"/>
      <line x1="500.0" y1="510.0" x2="500.0" y2="415.0" stroke="#5c7090" stroke-width="3.5" stroke-linecap="round"/>
      <line x1="500.0" y1="730.0" x2="500.0" y2="825.0" stroke="#5c7090" stroke-width="3.5" stroke-linecap="round"/>
      <line x1="500.0" y1="825.0" x2="585.0" y2="875.0" stroke="#5c7090" stroke-width="3.5" stroke-linecap="round"/>
      <line x1="585.0" y1="875.0" x2="640.0" y2="835.0" stroke="#5c7090" stroke-width="3.5" stroke-linecap="round"/>
      <line x1="592.6" y1="876.9" x2="639.5" y2="842.8" stroke="#5c7090" stroke-width="2.5" stroke-linecap="round"/>
      <line x1="585.0" y1="875.0" x2="633.0" y2="955.0" stroke="#5c7090" stroke-width="3.5" stroke-linecap="round"/>
      <circle cx="500.0" cy="510.0" r="17" fill="url(#atomC)"/>
      <circle cx="595.3" cy="565.0" r="17" fill="url(#atomC)"/>
      <circle cx="595.3" cy="675.0" r="17" fill="url(#atomC)"/>
      <circle cx="500.0" cy="730.0" r="17" fill="url(#atomC)"/>
      <circle cx="404.7" cy="675.0" r="17" fill="url(#atomC)"/>
      <circle cx="404.7" cy="565.0" r="17" fill="url(#atomC)"/>
      <circle cx="500.0" cy="415.0" r="19" fill="url(#atomO)"/>
      <circle cx="500.0" cy="825.0" r="18" fill="url(#atomN)"/>
      <circle cx="585.0" cy="875.0" r="17" fill="url(#atomC)"/>
      <circle cx="640.0" cy="835.0" r="19" fill="url(#atomO)"/>
      <circle cx="633.0" cy="955.0" r="17" fill="url(#atomC)"/>
    </g>

    <!-- ═══ CALL TO ACTION (below molecule) ═══ -->
    <text x="500.0" y="1010" text-anchor="middle"
          font-family="'JetBrains Mono','SF Mono',Consolas,monospace"
          font-size="11" letter-spacing="3" fill="#7a8a9c">— LAUNCH</text>
    <text x="500.0" y="1062" text-anchor="middle"
          font-family="'Playfair Display','Source Serif Pro',Georgia,serif"
          font-size="38" font-weight="700" fill="#1e4d8c">Open the viewer  →</text>
    <line x1="340.0" y1="1082" x2="660.0" y2="1082"
          stroke="#1e4d8c" stroke-width="1.2"/>
    <text x="500.0" y="1108" text-anchor="middle"
          font-family="'DM Sans','Helvetica Neue',Arial,sans-serif"
          font-size="13" fill="#7a8a9c">
      Click the banner or scan the QR code — opens in a new tab.
    </text>

    <!-- ═══ FOOTER: molecule caption + copyright ═══ -->
    <text x="500.0" y="1148" text-anchor="middle"
          font-family="'JetBrains Mono','SF Mono',Consolas,monospace"
          font-size="9" letter-spacing="2.4" fill="#7a8a9c">
      PARACETAMOL  ·  C₈H₉NO₂  ·  N-(4-HYDROXYPHENYL)ACETAMIDE
    </text>
    <text x="500.0" y="1170" text-anchor="middle"
          font-family="'JetBrains Mono','SF Mono',Consolas,monospace"
          font-size="9" letter-spacing="2.2" fill="#7a8a9c">
      © 2026 K. SARKAR &amp; A. GROSS · INST. THEORETISCHE CHEMIE · UNIV. ULM
    </text>

  </a>
</svg>

