<?xml version="1.0" encoding="UTF-8"?>
<!--
  MogadocLab banner — narrow, double-bordered, 720 × 1120.
  Classic frame: outer 4 px navy + 10 px gap + 1 px inner hairline.

  Typography: Playfair Display / DM Sans / JetBrains Mono are listed first
  in the font-family chains, but this SVG does NOT embed those webfonts
  (would inflate the file by ~100 KB). When the banner is loaded via
  <img src="banner.svg"> the SVG runs sandboxed and cannot reach external
  fonts. On a visitor's machine the chain falls through to the next
  available system serif/sans/mono — typically Georgia, Helvetica/Arial,
  Consolas/Courier. The design is tuned to look acceptable with those
  fallbacks; treat the Playfair render as a "nice if available" upgrade.
  Vertical bands, no overlap:
     90–200   title / subtitle / rule
    220–275   body
    295–327   badges
    365–765   molecule
    790–855   CTA
    875–1015  QR + caption
    1045–1100 copyright (3 German lines)
-->
<svg xmlns="http://www.w3.org/2000/svg" xmlns:xlink="http://www.w3.org/1999/xlink"
     viewBox="0 0 720 1120" width="720" height="1120"
     preserveAspectRatio="xMidYMid meet">

  <defs>
    <radialGradient id="atomC" cx="35%" cy="32%" r="65%">
      <stop offset="0%"   stop-color="#a8b3c2"/>
      <stop offset="55%"  stop-color="#4a5a6e"/>
      <stop offset="100%" stop-color="#1f2a38"/>
    </radialGradient>
    <radialGradient id="atomN" cx="35%" cy="32%" r="65%">
      <stop offset="0%"   stop-color="#7d9bd0"/>
      <stop offset="55%"  stop-color="#2a4d8c"/>
      <stop offset="100%" stop-color="#10203d"/>
    </radialGradient>
    <radialGradient id="atomO" cx="35%" cy="32%" r="65%">
      <stop offset="0%"   stop-color="#e08484"/>
      <stop offset="55%"  stop-color="#a82a2a"/>
      <stop offset="100%" stop-color="#4d1010"/>
    </radialGradient>
  </defs>

  <a href="https://rohinoy-lab.github.io/MogadocLab/"
     xlink:href="https://rohinoy-lab.github.io/MogadocLab/"
     target="_blank" rel="noopener">

    <rect width="720" height="1120" fill="#fbfcfd"/>

    <!-- Classic double border: thick outer + hairline inner. -->
    <rect x="5" y="5" width="710" height="1110"
          fill="none" stroke="#1e4d8c" stroke-width="4"/>
    <rect x="16" y="16" width="688" height="1088"
          fill="none" stroke="#1e4d8c" stroke-width="1"/>

    <!-- ── TITLE BLOCK ── -->
    <text x="360.0" y="130" text-anchor="middle"
          font-family="'Playfair Display','Source Serif Pro',Georgia,serif"
          font-size="78" font-weight="800" fill="#0a1929"
          letter-spacing="-0.4">MogadocLab</text>
    <text x="360.0" y="172" text-anchor="middle"
          font-family="'DM Sans','Helvetica Neue',Arial,sans-serif"
          font-size="22" font-weight="600" fill="#1e4d8c" letter-spacing="0.4">
      3D Molecular Viewer
    </text>
    <line x1="265.0" y1="192" x2="455.0" y2="192"
          stroke="#1e4d8c" stroke-width="1.4"/>

    <!-- ── BODY ── -->
    <g font-family="'DM Sans','Helvetica Neue',Arial,sans-serif"
       font-size="16" fill="#3e5269" font-weight="400">
      <text x="360.0" y="232" text-anchor="middle">
        <tspan x="360.0" dy="0">In-browser 3D molecular viewer with multi-format</tspan>
        <tspan x="360.0" dy="24">import and high-resolution image export.</tspan>
      </text>
    </g>

    <!-- ── BADGES ── -->
    <g font-family="'JetBrains Mono','SF Mono',Consolas,monospace"
       font-size="12" letter-spacing="2.2" font-weight="600">
      <g transform="translate(145.0, 295)">
        <rect x="0"   y="0" width="150" height="32" rx="4" fill="#1e4d8c"/>
        <text x="75"  y="21" text-anchor="middle" fill="#ffffff">NO INSTALL</text>
        <rect x="160" y="0" width="106" height="32" rx="4" fill="#1e4d8c"/>
        <text x="213" y="21" text-anchor="middle" fill="#ffffff">ONLINE</text>
        <rect x="276" y="0" width="154" height="32" rx="4" fill="#1e4d8c"/>
        <text x="353" y="21" text-anchor="middle" fill="#ffffff">OPEN ACCESS</text>
      </g>
    </g>

    <!-- ── MOLECULE ── -->
    <g id="molecule">
      <line x1="360.0" y1="448.0" x2="422.4" y2="484.0" stroke="#5c7090" stroke-width="3.0" stroke-linecap="round"/>
      <line x1="422.4" y1="484.0" x2="422.4" y2="556.0" stroke="#5c7090" stroke-width="3.0" stroke-linecap="round"/>
      <line x1="417.4" y1="488.0" x2="417.4" y2="552.0" stroke="#5c7090" stroke-width="2.0" stroke-linecap="round"/>
      <line x1="422.4" y1="556.0" x2="360.0" y2="592.0" stroke="#5c7090" stroke-width="3.0" stroke-linecap="round"/>
      <line x1="360.0" y1="592.0" x2="297.6" y2="556.0" stroke="#5c7090" stroke-width="3.0" stroke-linecap="round"/>
      <line x1="359.0" y1="585.7" x2="303.6" y2="553.7" stroke="#5c7090" stroke-width="2.0" stroke-linecap="round"/>
      <line x1="297.6" y1="556.0" x2="297.6" y2="484.0" stroke="#5c7090" stroke-width="3.0" stroke-linecap="round"/>
      <line x1="297.6" y1="484.0" x2="360.0" y2="448.0" stroke="#5c7090" stroke-width="3.0" stroke-linecap="round"/>
      <line x1="303.6" y1="486.3" x2="359.0" y2="454.3" stroke="#5c7090" stroke-width="2.0" stroke-linecap="round"/>
      <line x1="360.0" y1="448.0" x2="360.0" y2="383.0" stroke="#5c7090" stroke-width="3.0" stroke-linecap="round"/>
      <line x1="360.0" y1="592.0" x2="360.0" y2="657.0" stroke="#5c7090" stroke-width="3.0" stroke-linecap="round"/>
      <line x1="360.0" y1="657.0" x2="415.0" y2="690.0" stroke="#5c7090" stroke-width="3.0" stroke-linecap="round"/>
      <line x1="415.0" y1="690.0" x2="455.0" y2="662.0" stroke="#5c7090" stroke-width="3.0" stroke-linecap="round"/>
      <line x1="420.9" y1="691.4" x2="454.3" y2="668.0" stroke="#5c7090" stroke-width="2.0" stroke-linecap="round"/>
      <line x1="415.0" y1="690.0" x2="447.0" y2="742.0" stroke="#5c7090" stroke-width="3.0" stroke-linecap="round"/>
      <circle cx="360.0" cy="448.0" r="13" fill="url(#atomC)"/>
      <circle cx="422.4" cy="484.0" r="13" fill="url(#atomC)"/>
      <circle cx="422.4" cy="556.0" r="13" fill="url(#atomC)"/>
      <circle cx="360.0" cy="592.0" r="13" fill="url(#atomC)"/>
      <circle cx="297.6" cy="556.0" r="13" fill="url(#atomC)"/>
      <circle cx="297.6" cy="484.0" r="13" fill="url(#atomC)"/>
      <circle cx="360.0" cy="383.0" r="15" fill="url(#atomO)"/>
      <circle cx="360.0" cy="657.0" r="14" fill="url(#atomN)"/>
      <circle cx="415.0" cy="690.0" r="13" fill="url(#atomC)"/>
      <circle cx="455.0" cy="662.0" r="15" fill="url(#atomO)"/>
      <circle cx="447.0" cy="742.0" r="13" fill="url(#atomC)"/>
    </g>

    <!-- ── CTA ── -->
    <text x="360.0" y="810" text-anchor="middle"
          font-family="'JetBrains Mono','SF Mono',Consolas,monospace"
          font-size="12" letter-spacing="3.2" font-weight="600" fill="#1e4d8c">— LAUNCH</text>
    <text x="360.0" y="852" text-anchor="middle"
          font-family="'Playfair Display','Source Serif Pro',Georgia,serif"
          font-size="36" font-weight="700" fill="#1e4d8c">Open the viewer  →</text>

    <!-- ── QR ── -->
    <g id="qr">
      <rect x="290.0" y="875" width="140" height="140" rx="3"
            fill="#ffffff" stroke="#1e4d8c" stroke-width="1.4"/>
      <g fill="#0a1929">
        <rect x="302" y="887" width="4" height="4"/>
        <rect x="306" y="887" width="4" height="4"/>
        <rect x="310" y="887" width="4" height="4"/>
        <rect x="314" y="887" width="4" height="4"/>
        <rect x="318" y="887" width="4" height="4"/>
        <rect x="322" y="887" width="4" height="4"/>
        <rect x="326" y="887" width="4" height="4"/>
        <rect x="338" y="887" width="4" height="4"/>
        <rect x="358" y="887" width="4" height="4"/>
        <rect x="362" y="887" width="4" height="4"/>
        <rect x="378" y="887" width="4" height="4"/>
        <rect x="390" y="887" width="4" height="4"/>
        <rect x="394" y="887" width="4" height="4"/>
        <rect x="398" y="887" width="4" height="4"/>
        <rect x="402" y="887" width="4" height="4"/>
        <rect x="406" y="887" width="4" height="4"/>
        <rect x="410" y="887" width="4" height="4"/>
        <rect x="414" y="887" width="4" height="4"/>
        <rect x="302" y="891" width="4" height="4"/>
        <rect x="326" y="891" width="4" height="4"/>
        <rect x="334" y="891" width="4" height="4"/>
        <rect x="338" y="891" width="4" height="4"/>
        <rect x="346" y="891" width="4" height="4"/>
        <rect x="362" y="891" width="4" height="4"/>
        <rect x="366" y="891" width="4" height="4"/>
        <rect x="370" y="891" width="4" height="4"/>
        <rect x="374" y="891" width="4" height="4"/>
        <rect x="378" y="891" width="4" height="4"/>
        <rect x="382" y="891" width="4" height="4"/>
        <rect x="390" y="891" width="4" height="4"/>
        <rect x="414" y="891" width="4" height="4"/>
        <rect x="302" y="895" width="4" height="4"/>
        <rect x="310" y="895" width="4" height="4"/>
        <rect x="314" y="895" width="4" height="4"/>
        <rect x="318" y="895" width="4" height="4"/>
        <rect x="326" y="895" width="4" height="4"/>
        <rect x="338" y="895" width="4" height="4"/>
        <rect x="346" y="895" width="4" height="4"/>
        <rect x="350" y="895" width="4" height="4"/>
        <rect x="362" y="895" width="4" height="4"/>
        <rect x="374" y="895" width="4" height="4"/>
        <rect x="382" y="895" width="4" height="4"/>
        <rect x="390" y="895" width="4" height="4"/>
        <rect x="398" y="895" width="4" height="4"/>
        <rect x="402" y="895" width="4" height="4"/>
        <rect x="406" y="895" width="4" height="4"/>
        <rect x="414" y="895" width="4" height="4"/>
        <rect x="302" y="899" width="4" height="4"/>
        <rect x="310" y="899" width="4" height="4"/>
        <rect x="314" y="899" width="4" height="4"/>
        <rect x="318" y="899" width="4" height="4"/>
        <rect x="326" y="899" width="4" height="4"/>
        <rect x="346" y="899" width="4" height="4"/>
        <rect x="354" y="899" width="4" height="4"/>
        <rect x="358" y="899" width="4" height="4"/>
        <rect x="374" y="899" width="4" height="4"/>
        <rect x="390" y="899" width="4" height="4"/>
        <rect x="398" y="899" width="4" height="4"/>
        <rect x="402" y="899" width="4" height="4"/>
        <rect x="406" y="899" width="4" height="4"/>
        <rect x="414" y="899" width="4" height="4"/>
        <rect x="302" y="903" width="4" height="4"/>
        <rect x="310" y="903" width="4" height="4"/>
        <rect x="314" y="903" width="4" height="4"/>
        <rect x="318" y="903" width="4" height="4"/>
        <rect x="326" y="903" width="4" height="4"/>
        <rect x="334" y="903" width="4" height="4"/>
        <rect x="346" y="903" width="4" height="4"/>
        <rect x="350" y="903" width="4" height="4"/>
        <rect x="354" y="903" width="4" height="4"/>
        <rect x="358" y="903" width="4" height="4"/>
        <rect x="362" y="903" width="4" height="4"/>
        <rect x="370" y="903" width="4" height="4"/>
        <rect x="374" y="903" width="4" height="4"/>
        <rect x="378" y="903" width="4" height="4"/>
        <rect x="390" y="903" width="4" height="4"/>
        <rect x="398" y="903" width="4" height="4"/>
        <rect x="402" y="903" width="4" height="4"/>
        <rect x="406" y="903" width="4" height="4"/>
        <rect x="414" y="903" width="4" height="4"/>
        <rect x="302" y="907" width="4" height="4"/>
        <rect x="326" y="907" width="4" height="4"/>
        <rect x="338" y="907" width="4" height="4"/>
        <rect x="346" y="907" width="4" height="4"/>
        <rect x="350" y="907" width="4" height="4"/>
        <rect x="354" y="907" width="4" height="4"/>
        <rect x="358" y="907" width="4" height="4"/>
        <rect x="362" y="907" width="4" height="4"/>
        <rect x="370" y="907" width="4" height="4"/>
        <rect x="378" y="907" width="4" height="4"/>
        <rect x="382" y="907" width="4" height="4"/>
        <rect x="390" y="907" width="4" height="4"/>
        <rect x="414" y="907" width="4" height="4"/>
        <rect x="302" y="911" width="4" height="4"/>
        <rect x="306" y="911" width="4" height="4"/>
        <rect x="310" y="911" width="4" height="4"/>
        <rect x="314" y="911" width="4" height="4"/>
        <rect x="318" y="911" width="4" height="4"/>
        <rect x="322" y="911" width="4" height="4"/>
        <rect x="326" y="911" width="4" height="4"/>
        <rect x="334" y="911" width="4" height="4"/>
        <rect x="342" y="911" width="4" height="4"/>
        <rect x="350" y="911" width="4" height="4"/>
        <rect x="358" y="911" width="4" height="4"/>
        <rect x="366" y="911" width="4" height="4"/>
        <rect x="374" y="911" width="4" height="4"/>
        <rect x="382" y="911" width="4" height="4"/>
        <rect x="390" y="911" width="4" height="4"/>
        <rect x="394" y="911" width="4" height="4"/>
        <rect x="398" y="911" width="4" height="4"/>
        <rect x="402" y="911" width="4" height="4"/>
        <rect x="406" y="911" width="4" height="4"/>
        <rect x="410" y="911" width="4" height="4"/>
        <rect x="414" y="911" width="4" height="4"/>
        <rect x="338" y="915" width="4" height="4"/>
        <rect x="342" y="915" width="4" height="4"/>
        <rect x="346" y="915" width="4" height="4"/>
        <rect x="350" y="915" width="4" height="4"/>
        <rect x="354" y="915" width="4" height="4"/>
        <rect x="362" y="915" width="4" height="4"/>
        <rect x="366" y="915" width="4" height="4"/>
        <rect x="370" y="915" width="4" height="4"/>
        <rect x="382" y="915" width="4" height="4"/>
        <rect x="302" y="919" width="4" height="4"/>
        <rect x="310" y="919" width="4" height="4"/>
        <rect x="318" y="919" width="4" height="4"/>
        <rect x="326" y="919" width="4" height="4"/>
        <rect x="342" y="919" width="4" height="4"/>
        <rect x="346" y="919" width="4" height="4"/>
        <rect x="350" y="919" width="4" height="4"/>
        <rect x="354" y="919" width="4" height="4"/>
        <rect x="366" y="919" width="4" height="4"/>
        <rect x="370" y="919" width="4" height="4"/>
        <rect x="382" y="919" width="4" height="4"/>
        <rect x="398" y="919" width="4" height="4"/>
        <rect x="410" y="919" width="4" height="4"/>
        <rect x="302" y="923" width="4" height="4"/>
        <rect x="306" y="923" width="4" height="4"/>
        <rect x="310" y="923" width="4" height="4"/>
        <rect x="314" y="923" width="4" height="4"/>
        <rect x="322" y="923" width="4" height="4"/>
        <rect x="334" y="923" width="4" height="4"/>
        <rect x="338" y="923" width="4" height="4"/>
        <rect x="342" y="923" width="4" height="4"/>
        <rect x="354" y="923" width="4" height="4"/>
        <rect x="366" y="923" width="4" height="4"/>
        <rect x="370" y="923" width="4" height="4"/>
        <rect x="374" y="923" width="4" height="4"/>
        <rect x="382" y="923" width="4" height="4"/>
        <rect x="386" y="923" width="4" height="4"/>
        <rect x="390" y="923" width="4" height="4"/>
        <rect x="402" y="923" width="4" height="4"/>
        <rect x="414" y="923" width="4" height="4"/>
        <rect x="306" y="927" width="4" height="4"/>
        <rect x="318" y="927" width="4" height="4"/>
        <rect x="326" y="927" width="4" height="4"/>
        <rect x="338" y="927" width="4" height="4"/>
        <rect x="346" y="927" width="4" height="4"/>
        <rect x="350" y="927" width="4" height="4"/>
        <rect x="358" y="927" width="4" height="4"/>
        <rect x="382" y="927" width="4" height="4"/>
        <rect x="386" y="927" width="4" height="4"/>
        <rect x="394" y="927" width="4" height="4"/>
        <rect x="398" y="927" width="4" height="4"/>
        <rect x="406" y="927" width="4" height="4"/>
        <rect x="410" y="927" width="4" height="4"/>
        <rect x="414" y="927" width="4" height="4"/>
        <rect x="302" y="931" width="4" height="4"/>
        <rect x="306" y="931" width="4" height="4"/>
        <rect x="334" y="931" width="4" height="4"/>
        <rect x="338" y="931" width="4" height="4"/>
        <rect x="342" y="931" width="4" height="4"/>
        <rect x="350" y="931" width="4" height="4"/>
        <rect x="354" y="931" width="4" height="4"/>
        <rect x="358" y="931" width="4" height="4"/>
        <rect x="362" y="931" width="4" height="4"/>
        <rect x="370" y="931" width="4" height="4"/>
        <rect x="374" y="931" width="4" height="4"/>
        <rect x="382" y="931" width="4" height="4"/>
        <rect x="386" y="931" width="4" height="4"/>
        <rect x="390" y="931" width="4" height="4"/>
        <rect x="394" y="931" width="4" height="4"/>
        <rect x="398" y="931" width="4" height="4"/>
        <rect x="410" y="931" width="4" height="4"/>
        <rect x="302" y="935" width="4" height="4"/>
        <rect x="306" y="935" width="4" height="4"/>
        <rect x="310" y="935" width="4" height="4"/>
        <rect x="314" y="935" width="4" height="4"/>
        <rect x="326" y="935" width="4" height="4"/>
        <rect x="338" y="935" width="4" height="4"/>
        <rect x="346" y="935" width="4" height="4"/>
        <rect x="350" y="935" width="4" height="4"/>
        <rect x="354" y="935" width="4" height="4"/>
        <rect x="366" y="935" width="4" height="4"/>
        <rect x="370" y="935" width="4" height="4"/>
        <rect x="378" y="935" width="4" height="4"/>
        <rect x="382" y="935" width="4" height="4"/>
        <rect x="386" y="935" width="4" height="4"/>
        <rect x="390" y="935" width="4" height="4"/>
        <rect x="402" y="935" width="4" height="4"/>
        <rect x="410" y="935" width="4" height="4"/>
        <rect x="414" y="935" width="4" height="4"/>
        <rect x="302" y="939" width="4" height="4"/>
        <rect x="306" y="939" width="4" height="4"/>
        <rect x="318" y="939" width="4" height="4"/>
        <rect x="334" y="939" width="4" height="4"/>
        <rect x="338" y="939" width="4" height="4"/>
        <rect x="354" y="939" width="4" height="4"/>
        <rect x="366" y="939" width="4" height="4"/>
        <rect x="370" y="939" width="4" height="4"/>
        <rect x="386" y="939" width="4" height="4"/>
        <rect x="390" y="939" width="4" height="4"/>
        <rect x="402" y="939" width="4" height="4"/>
        <rect x="414" y="939" width="4" height="4"/>
        <rect x="302" y="943" width="4" height="4"/>
        <rect x="306" y="943" width="4" height="4"/>
        <rect x="310" y="943" width="4" height="4"/>
        <rect x="318" y="943" width="4" height="4"/>
        <rect x="322" y="943" width="4" height="4"/>
        <rect x="326" y="943" width="4" height="4"/>
        <rect x="338" y="943" width="4" height="4"/>
        <rect x="350" y="943" width="4" height="4"/>
        <rect x="354" y="943" width="4" height="4"/>
        <rect x="358" y="943" width="4" height="4"/>
        <rect x="370" y="943" width="4" height="4"/>
        <rect x="374" y="943" width="4" height="4"/>
        <rect x="382" y="943" width="4" height="4"/>
        <rect x="386" y="943" width="4" height="4"/>
        <rect x="398" y="943" width="4" height="4"/>
        <rect x="402" y="943" width="4" height="4"/>
        <rect x="410" y="943" width="4" height="4"/>
        <rect x="414" y="943" width="4" height="4"/>
        <rect x="302" y="947" width="4" height="4"/>
        <rect x="306" y="947" width="4" height="4"/>
        <rect x="314" y="947" width="4" height="4"/>
        <rect x="318" y="947" width="4" height="4"/>
        <rect x="330" y="947" width="4" height="4"/>
        <rect x="334" y="947" width="4" height="4"/>
        <rect x="338" y="947" width="4" height="4"/>
        <rect x="342" y="947" width="4" height="4"/>
        <rect x="346" y="947" width="4" height="4"/>
        <rect x="350" y="947" width="4" height="4"/>
        <rect x="354" y="947" width="4" height="4"/>
        <rect x="366" y="947" width="4" height="4"/>
        <rect x="370" y="947" width="4" height="4"/>
        <rect x="390" y="947" width="4" height="4"/>
        <rect x="394" y="947" width="4" height="4"/>
        <rect x="398" y="947" width="4" height="4"/>
        <rect x="402" y="947" width="4" height="4"/>
        <rect x="410" y="947" width="4" height="4"/>
        <rect x="322" y="951" width="4" height="4"/>
        <rect x="326" y="951" width="4" height="4"/>
        <rect x="334" y="951" width="4" height="4"/>
        <rect x="338" y="951" width="4" height="4"/>
        <rect x="342" y="951" width="4" height="4"/>
        <rect x="354" y="951" width="4" height="4"/>
        <rect x="358" y="951" width="4" height="4"/>
        <rect x="366" y="951" width="4" height="4"/>
        <rect x="370" y="951" width="4" height="4"/>
        <rect x="374" y="951" width="4" height="4"/>
        <rect x="382" y="951" width="4" height="4"/>
        <rect x="386" y="951" width="4" height="4"/>
        <rect x="390" y="951" width="4" height="4"/>
        <rect x="402" y="951" width="4" height="4"/>
        <rect x="410" y="951" width="4" height="4"/>
        <rect x="414" y="951" width="4" height="4"/>
        <rect x="310" y="955" width="4" height="4"/>
        <rect x="314" y="955" width="4" height="4"/>
        <rect x="330" y="955" width="4" height="4"/>
        <rect x="338" y="955" width="4" height="4"/>
        <rect x="346" y="955" width="4" height="4"/>
        <rect x="350" y="955" width="4" height="4"/>
        <rect x="366" y="955" width="4" height="4"/>
        <rect x="382" y="955" width="4" height="4"/>
        <rect x="390" y="955" width="4" height="4"/>
        <rect x="402" y="955" width="4" height="4"/>
        <rect x="406" y="955" width="4" height="4"/>
        <rect x="414" y="955" width="4" height="4"/>
        <rect x="302" y="959" width="4" height="4"/>
        <rect x="310" y="959" width="4" height="4"/>
        <rect x="322" y="959" width="4" height="4"/>
        <rect x="326" y="959" width="4" height="4"/>
        <rect x="338" y="959" width="4" height="4"/>
        <rect x="346" y="959" width="4" height="4"/>
        <rect x="350" y="959" width="4" height="4"/>
        <rect x="354" y="959" width="4" height="4"/>
        <rect x="370" y="959" width="4" height="4"/>
        <rect x="394" y="959" width="4" height="4"/>
        <rect x="410" y="959" width="4" height="4"/>
        <rect x="414" y="959" width="4" height="4"/>
        <rect x="306" y="963" width="4" height="4"/>
        <rect x="338" y="963" width="4" height="4"/>
        <rect x="342" y="963" width="4" height="4"/>
        <rect x="354" y="963" width="4" height="4"/>
        <rect x="358" y="963" width="4" height="4"/>
        <rect x="366" y="963" width="4" height="4"/>
        <rect x="370" y="963" width="4" height="4"/>
        <rect x="378" y="963" width="4" height="4"/>
        <rect x="398" y="963" width="4" height="4"/>
        <rect x="402" y="963" width="4" height="4"/>
        <rect x="410" y="963" width="4" height="4"/>
        <rect x="302" y="967" width="4" height="4"/>
        <rect x="314" y="967" width="4" height="4"/>
        <rect x="318" y="967" width="4" height="4"/>
        <rect x="326" y="967" width="4" height="4"/>
        <rect x="330" y="967" width="4" height="4"/>
        <rect x="334" y="967" width="4" height="4"/>
        <rect x="346" y="967" width="4" height="4"/>
        <rect x="358" y="967" width="4" height="4"/>
        <rect x="362" y="967" width="4" height="4"/>
        <rect x="366" y="967" width="4" height="4"/>
        <rect x="370" y="967" width="4" height="4"/>
        <rect x="382" y="967" width="4" height="4"/>
        <rect x="386" y="967" width="4" height="4"/>
        <rect x="390" y="967" width="4" height="4"/>
        <rect x="394" y="967" width="4" height="4"/>
        <rect x="398" y="967" width="4" height="4"/>
        <rect x="334" y="971" width="4" height="4"/>
        <rect x="342" y="971" width="4" height="4"/>
        <rect x="350" y="971" width="4" height="4"/>
        <rect x="366" y="971" width="4" height="4"/>
        <rect x="378" y="971" width="4" height="4"/>
        <rect x="382" y="971" width="4" height="4"/>
        <rect x="398" y="971" width="4" height="4"/>
        <rect x="406" y="971" width="4" height="4"/>
        <rect x="410" y="971" width="4" height="4"/>
        <rect x="414" y="971" width="4" height="4"/>
        <rect x="302" y="975" width="4" height="4"/>
        <rect x="306" y="975" width="4" height="4"/>
        <rect x="310" y="975" width="4" height="4"/>
        <rect x="314" y="975" width="4" height="4"/>
        <rect x="318" y="975" width="4" height="4"/>
        <rect x="322" y="975" width="4" height="4"/>
        <rect x="326" y="975" width="4" height="4"/>
        <rect x="338" y="975" width="4" height="4"/>
        <rect x="354" y="975" width="4" height="4"/>
        <rect x="374" y="975" width="4" height="4"/>
        <rect x="378" y="975" width="4" height="4"/>
        <rect x="382" y="975" width="4" height="4"/>
        <rect x="390" y="975" width="4" height="4"/>
        <rect x="398" y="975" width="4" height="4"/>
        <rect x="402" y="975" width="4" height="4"/>
        <rect x="410" y="975" width="4" height="4"/>
        <rect x="414" y="975" width="4" height="4"/>
        <rect x="302" y="979" width="4" height="4"/>
        <rect x="326" y="979" width="4" height="4"/>
        <rect x="338" y="979" width="4" height="4"/>
        <rect x="350" y="979" width="4" height="4"/>
        <rect x="362" y="979" width="4" height="4"/>
        <rect x="366" y="979" width="4" height="4"/>
        <rect x="370" y="979" width="4" height="4"/>
        <rect x="374" y="979" width="4" height="4"/>
        <rect x="382" y="979" width="4" height="4"/>
        <rect x="398" y="979" width="4" height="4"/>
        <rect x="402" y="979" width="4" height="4"/>
        <rect x="302" y="983" width="4" height="4"/>
        <rect x="310" y="983" width="4" height="4"/>
        <rect x="314" y="983" width="4" height="4"/>
        <rect x="318" y="983" width="4" height="4"/>
        <rect x="326" y="983" width="4" height="4"/>
        <rect x="334" y="983" width="4" height="4"/>
        <rect x="338" y="983" width="4" height="4"/>
        <rect x="350" y="983" width="4" height="4"/>
        <rect x="362" y="983" width="4" height="4"/>
        <rect x="366" y="983" width="4" height="4"/>
        <rect x="370" y="983" width="4" height="4"/>
        <rect x="382" y="983" width="4" height="4"/>
        <rect x="386" y="983" width="4" height="4"/>
        <rect x="390" y="983" width="4" height="4"/>
        <rect x="394" y="983" width="4" height="4"/>
        <rect x="398" y="983" width="4" height="4"/>
        <rect x="302" y="987" width="4" height="4"/>
        <rect x="310" y="987" width="4" height="4"/>
        <rect x="314" y="987" width="4" height="4"/>
        <rect x="318" y="987" width="4" height="4"/>
        <rect x="326" y="987" width="4" height="4"/>
        <rect x="338" y="987" width="4" height="4"/>
        <rect x="342" y="987" width="4" height="4"/>
        <rect x="346" y="987" width="4" height="4"/>
        <rect x="350" y="987" width="4" height="4"/>
        <rect x="354" y="987" width="4" height="4"/>
        <rect x="362" y="987" width="4" height="4"/>
        <rect x="366" y="987" width="4" height="4"/>
        <rect x="378" y="987" width="4" height="4"/>
        <rect x="386" y="987" width="4" height="4"/>
        <rect x="394" y="987" width="4" height="4"/>
        <rect x="398" y="987" width="4" height="4"/>
        <rect x="406" y="987" width="4" height="4"/>
        <rect x="410" y="987" width="4" height="4"/>
        <rect x="414" y="987" width="4" height="4"/>
        <rect x="302" y="991" width="4" height="4"/>
        <rect x="310" y="991" width="4" height="4"/>
        <rect x="314" y="991" width="4" height="4"/>
        <rect x="318" y="991" width="4" height="4"/>
        <rect x="326" y="991" width="4" height="4"/>
        <rect x="334" y="991" width="4" height="4"/>
        <rect x="338" y="991" width="4" height="4"/>
        <rect x="350" y="991" width="4" height="4"/>
        <rect x="370" y="991" width="4" height="4"/>
        <rect x="378" y="991" width="4" height="4"/>
        <rect x="394" y="991" width="4" height="4"/>
        <rect x="398" y="991" width="4" height="4"/>
        <rect x="402" y="991" width="4" height="4"/>
        <rect x="414" y="991" width="4" height="4"/>
        <rect x="302" y="995" width="4" height="4"/>
        <rect x="326" y="995" width="4" height="4"/>
        <rect x="342" y="995" width="4" height="4"/>
        <rect x="350" y="995" width="4" height="4"/>
        <rect x="366" y="995" width="4" height="4"/>
        <rect x="370" y="995" width="4" height="4"/>
        <rect x="374" y="995" width="4" height="4"/>
        <rect x="378" y="995" width="4" height="4"/>
        <rect x="382" y="995" width="4" height="4"/>
        <rect x="390" y="995" width="4" height="4"/>
        <rect x="394" y="995" width="4" height="4"/>
        <rect x="398" y="995" width="4" height="4"/>
        <rect x="410" y="995" width="4" height="4"/>
        <rect x="302" y="999" width="4" height="4"/>
        <rect x="306" y="999" width="4" height="4"/>
        <rect x="310" y="999" width="4" height="4"/>
        <rect x="314" y="999" width="4" height="4"/>
        <rect x="318" y="999" width="4" height="4"/>
        <rect x="322" y="999" width="4" height="4"/>
        <rect x="326" y="999" width="4" height="4"/>
        <rect x="334" y="999" width="4" height="4"/>
        <rect x="342" y="999" width="4" height="4"/>
        <rect x="346" y="999" width="4" height="4"/>
        <rect x="350" y="999" width="4" height="4"/>
        <rect x="354" y="999" width="4" height="4"/>
        <rect x="358" y="999" width="4" height="4"/>
        <rect x="362" y="999" width="4" height="4"/>
        <rect x="366" y="999" width="4" height="4"/>
        <rect x="370" y="999" width="4" height="4"/>
        <rect x="374" y="999" width="4" height="4"/>
        <rect x="378" y="999" width="4" height="4"/>
        <rect x="382" y="999" width="4" height="4"/>
        <rect x="386" y="999" width="4" height="4"/>
        <rect x="390" y="999" width="4" height="4"/>
        <rect x="398" y="999" width="4" height="4"/>
        <rect x="402" y="999" width="4" height="4"/>
        <rect x="410" y="999" width="4" height="4"/>
        <rect x="414" y="999" width="4" height="4"/>
      </g>
      <text x="360.0" y="1035" text-anchor="middle"
            font-family="'JetBrains Mono','SF Mono',Consolas,monospace"
            font-size="11" letter-spacing="3" font-weight="600" fill="#1e4d8c">
        SCAN TO LAUNCH
      </text>
    </g>

    <!-- ── COPYRIGHT ── -->
    <text x="360.0" y="1058" text-anchor="middle"
          font-family="'DM Sans','Helvetica Neue',Arial,sans-serif"
          font-size="16" font-weight="700" fill="#0a1929">
      © 2026 Kanchan Sarkar &amp; Axel Groß
    </text>
    <text x="360.0" y="1080" text-anchor="middle"
          font-family="'DM Sans','Helvetica Neue',Arial,sans-serif"
          font-size="14" font-weight="500" fill="#1e4d8c">
      Institut für Theoretische Chemie
    </text>
    <text x="360.0" y="1098" text-anchor="middle"
          font-family="'DM Sans','Helvetica Neue',Arial,sans-serif"
          font-size="14" font-weight="500" fill="#1e4d8c">
      Universität Ulm
    </text>

  </a>
</svg>

