<?xml version="1.0" encoding="UTF-8"?>
<!--
  MogadocLab banner (1600 × 900, 16:9)
  URL: https://rohinoy-lab.github.io/MogadocLab/
  QR embedded inline (29×29, ECC level M, encodes the URL above).
  © Kanchan Sarkar.
  Drop into TYPO3 as-is, or rasterize to PNG with:
    rsvg-convert -w 2400 banner.svg > banner.png
    inkscape banner.svg -o banner.png -w 2400
-->
<svg xmlns="http://www.w3.org/2000/svg"
     viewBox="0 0 1600 900" width="1600" height="900"
     preserveAspectRatio="xMidYMid meet">

  <defs>
    <!-- Subtle navy wash in the top-right corner -->
    <radialGradient id="cornerWash" cx="0.88" cy="0.08" r="0.55">
      <stop offset="0%"   stop-color="#1e4d8c" stop-opacity="0.05"/>
      <stop offset="100%" stop-color="#1e4d8c" stop-opacity="0"/>
    </radialGradient>

    <!-- Atom spheres -->
    <radialGradient id="atomC" cx="35%" cy="32%" r="65%">
      <stop offset="0%"   stop-color="#a8b3c2"/>
      <stop offset="55%"  stop-color="#4a5a6e"/>
      <stop offset="100%" stop-color="#1f2a38"/>
    </radialGradient>
    <radialGradient id="atomN" cx="35%" cy="32%" r="65%">
      <stop offset="0%"   stop-color="#7d9bd0"/>
      <stop offset="55%"  stop-color="#2a4d8c"/>
      <stop offset="100%" stop-color="#10203d"/>
    </radialGradient>
    <radialGradient id="atomO" cx="35%" cy="32%" r="65%">
      <stop offset="0%"   stop-color="#e08484"/>
      <stop offset="55%"  stop-color="#a82a2a"/>
      <stop offset="100%" stop-color="#4d1010"/>
    </radialGradient>

    <!-- Grid for the molecule panel background -->
    <pattern id="lab-grid" width="40" height="40" patternUnits="userSpaceOnUse">
      <path d="M40 0 L0 0 L0 40" fill="none"
            stroke="#dde3eb" stroke-width="0.5" opacity="0.55"/>
    </pattern>
  </defs>

  <!-- ── Paper background ─────────────────────────────────────── -->
  <rect width="1600" height="900" fill="#fbfcfd"/>
  <rect width="1600" height="900" fill="url(#cornerWash)"/>

  <!-- ── Outer hairline frame + corner accents ────────────────── -->
  <rect x="14" y="14" width="1572" height="872"
        fill="none" stroke="#dde3eb" stroke-width="1"/>
  <path d="M14 64 L14 14 L64 14" fill="none" stroke="#1e4d8c" stroke-width="2"/>
  <path d="M1586 836 L1586 886 L1536 886" fill="none" stroke="#1e4d8c" stroke-width="2"/>

  <!-- ════════════════════════════════════════════════════════════
       LEFT PANEL — molecule schematic (paracetamol)
       ════════════════════════════════════════════════════════════ -->
  <g id="left-panel">
    <rect x="62" y="68" width="780" height="764"
          fill="#f5f7fa" stroke="#dde3eb" stroke-width="1"/>
    <rect x="62" y="68" width="780" height="764" fill="url(#lab-grid)"/>

    <!-- Figure index, very small, top-left -->
    <text x="82" y="100"
          font-family="'JetBrains Mono', 'SF Mono', Consolas, monospace"
          font-size="11" letter-spacing="2.4" fill="#7a8a9c">FIG · 01</text>
    <text x="822" y="100" text-anchor="end"
          font-family="'JetBrains Mono', 'SF Mono', Consolas, monospace"
          font-size="11" letter-spacing="2.4" fill="#7a8a9c">BALL · STICK</text>

    <!-- ─── Molecule: paracetamol (acetaminophen) ─────────────── -->
    <g id="molecule">

      <!-- Ring single bonds (alternating) -->
      <line x1="435" y1="340" x2="530" y2="395" stroke="#5c7090" stroke-width="3.5" stroke-linecap="round"/>
      <line x1="530" y1="505" x2="435" y2="560" stroke="#5c7090" stroke-width="3.5" stroke-linecap="round"/>
      <line x1="340" y1="505" x2="340" y2="395" stroke="#5c7090" stroke-width="3.5" stroke-linecap="round"/>

      <!-- Ring double bonds (alternating) — outer line + inner offset -->
      <!-- A1-A2 (right vertical edge) -->
      <line x1="530" y1="395" x2="530" y2="505" stroke="#5c7090" stroke-width="3.5" stroke-linecap="round"/>
      <line x1="520" y1="402" x2="520" y2="498" stroke="#5c7090" stroke-width="2.5" stroke-linecap="round"/>
      <!-- A3-A4 (bottom-left diagonal) -->
      <line x1="435" y1="560" x2="340" y2="505" stroke="#5c7090" stroke-width="3.5" stroke-linecap="round"/>
      <line x1="431" y1="550" x2="349" y2="503" stroke="#5c7090" stroke-width="2.5" stroke-linecap="round"/>
      <!-- A5-A0 (top-left diagonal) -->
      <line x1="340" y1="395" x2="435" y2="340" stroke="#5c7090" stroke-width="3.5" stroke-linecap="round"/>
      <line x1="349" y1="402" x2="431" y2="350" stroke="#5c7090" stroke-width="2.5" stroke-linecap="round"/>

      <!-- Hydroxyl substituent (top): C0–O -->
      <line x1="435" y1="340" x2="435" y2="246" stroke="#5c7090" stroke-width="3.5" stroke-linecap="round"/>

      <!-- Amide substituent (bottom): C3–N–C(=O)–CH₃ -->
      <line x1="435" y1="560" x2="435" y2="652" stroke="#5c7090" stroke-width="3.5" stroke-linecap="round"/>
      <line x1="435" y1="652" x2="522" y2="700" stroke="#5c7090" stroke-width="3.5" stroke-linecap="round"/>
      <!-- Carbonyl double C=O -->
      <line x1="522" y1="700" x2="582" y2="660" stroke="#5c7090" stroke-width="3.5" stroke-linecap="round"/>
      <line x1="528" y1="710" x2="588" y2="670" stroke="#5c7090" stroke-width="2.5" stroke-linecap="round"/>
      <!-- Acetyl methyl C–C -->
      <line x1="522" y1="700" x2="568" y2="775" stroke="#5c7090" stroke-width="3.5" stroke-linecap="round"/>

      <!-- Ring carbons -->
      <circle cx="435" cy="340" r="16" fill="url(#atomC)"/>
      <circle cx="530" cy="395" r="16" fill="url(#atomC)"/>
      <circle cx="530" cy="505" r="16" fill="url(#atomC)"/>
      <circle cx="435" cy="560" r="16" fill="url(#atomC)"/>
      <circle cx="340" cy="505" r="16" fill="url(#atomC)"/>
      <circle cx="340" cy="395" r="16" fill="url(#atomC)"/>

      <!-- Substituent atoms -->
      <circle cx="435" cy="246" r="18" fill="url(#atomO)"/>          <!-- hydroxyl O -->
      <circle cx="435" cy="652" r="17" fill="url(#atomN)"/>          <!-- amide N -->
      <circle cx="522" cy="700" r="16" fill="url(#atomC)"/>          <!-- carbonyl C -->
      <circle cx="582" cy="660" r="18" fill="url(#atomO)"/>          <!-- carbonyl O -->
      <circle cx="568" cy="775" r="16" fill="url(#atomC)"/>          <!-- methyl C -->

      <!-- Element labels in mono -->
      <g font-family="'JetBrains Mono', 'SF Mono', Consolas, monospace"
         font-size="11" fill="#3e5269" letter-spacing="0.6">
        <text x="465" y="232">O</text>
        <text x="465" y="654">N</text>
        <text x="608" y="652">O</text>
        <text x="595" y="780">C</text>
      </g>
    </g>

    <!-- Caption strip under molecule -->
    <line x1="220" y1="800" x2="680" y2="800" stroke="#dde3eb" stroke-width="1"/>
    <text x="450" y="820" text-anchor="middle"
          font-family="'JetBrains Mono', 'SF Mono', Consolas, monospace"
          font-size="11" letter-spacing="2.8" fill="#7a8a9c">
      N-(4-HYDROXYPHENYL)ACETAMIDE  ·  C₈H₉NO₂  ·  151.16 g·mol⁻¹
    </text>
  </g>

  <!-- ════════════════════════════════════════════════════════════
       RIGHT PANEL — typographic title block
       ════════════════════════════════════════════════════════════ -->
  <g id="right-panel">

    <!-- Header micro line -->
    <text x="880" y="100"
          font-family="'JetBrains Mono', 'SF Mono', Consolas, monospace"
          font-size="11" letter-spacing="3" fill="#7a8a9c">
      001 · ULM UNIVERSITY · QUANTUM CHEMISTRY
    </text>

    <!-- Vertical accent rule -->
    <line x1="880" y1="138" x2="880" y2="780"
          stroke="#dde3eb" stroke-width="1"/>

    <!-- Eyebrow / tag -->
    <text x="912" y="178"
          font-family="'JetBrains Mono', 'SF Mono', Consolas, monospace"
          font-size="13" letter-spacing="4.5" fill="#1e4d8c" font-weight="500">
      MOLECULAR  STRUCTURE  STUDIO
    </text>

    <!-- Title -->
    <text x="912" y="290"
          font-family="'Playfair Display', 'Source Serif Pro', Georgia, 'Times New Roman', serif"
          font-size="92" font-weight="800" fill="#0a1929"
          letter-spacing="-1">MogadocLab</text>

    <!-- Subtitle -->
    <text x="912" y="338"
          font-family="'DM Sans', 'Helvetica Neue', Arial, sans-serif"
          font-size="22" font-weight="500" fill="#1e4d8c" letter-spacing="0.4">
      3D Molecular Viewer
    </text>

    <!-- Hairline rule under subtitle -->
    <line x1="912" y1="376" x2="1140" y2="376"
          stroke="#1e4d8c" stroke-width="1.4"/>

    <!-- Body paragraph -->
    <g font-family="'DM Sans', 'Helvetica Neue', Arial, sans-serif"
       font-size="17" fill="#3e5269" font-weight="400">
      <text x="912" y="430">
        <tspan x="912" dy="0">In-browser 3D viewer with multi-format import</tspan>
        <tspan x="912" dy="29">— XYZ · MOL · PDB · Gaussian · ORCA · CIF · VASP ·</tspan>
        <tspan x="912" dy="29">Quantum ESPRESSO — high-resolution image export,</tspan>
        <tspan x="912" dy="29">and direct loading from PubChem and the Protein Data Bank.</tspan>
      </text>
    </g>

    <!-- Access section -->
    <text x="912" y="620"
          font-family="'JetBrains Mono', 'SF Mono', Consolas, monospace"
          font-size="11" letter-spacing="3.4" fill="#7a8a9c">— ACCESS</text>
    <text x="912" y="664"
          font-family="'JetBrains Mono', 'SF Mono', Consolas, monospace"
          font-size="22" fill="#1e4d8c" font-weight="500">rohinoy-lab.github.io/MogadocLab</text>
    <line x1="912" y1="676" x2="1340" y2="676"
          stroke="#1e4d8c" stroke-width="1.2"/>
    <text x="912" y="704"
          font-family="'DM Sans', 'Helvetica Neue', Arial, sans-serif"
          font-size="13" fill="#7a8a9c">Open the live viewer or scan the QR code on the right →</text>

    <!-- Real QR for https://rohinoy-lab.github.io/MogadocLab/ (v3, ECC=M, 29×29 modules) -->
    <g id="qr">
      <rect x="1390" y="596" width="156" height="156" rx="2"
            fill="#ffffff" stroke="#1e4d8c" stroke-width="1.4"/>
      <g fill="#0a1929">
        <rect x="1395.5" y="601.5" width="5" height="5"/>
        <rect x="1400.5" y="601.5" width="5" height="5"/>
        <rect x="1405.5" y="601.5" width="5" height="5"/>
        <rect x="1410.5" y="601.5" width="5" height="5"/>
        <rect x="1415.5" y="601.5" width="5" height="5"/>
        <rect x="1420.5" y="601.5" width="5" height="5"/>
        <rect x="1425.5" y="601.5" width="5" height="5"/>
        <rect x="1440.5" y="601.5" width="5" height="5"/>
        <rect x="1445.5" y="601.5" width="5" height="5"/>
        <rect x="1455.5" y="601.5" width="5" height="5"/>
        <rect x="1460.5" y="601.5" width="5" height="5"/>
        <rect x="1470.5" y="601.5" width="5" height="5"/>
        <rect x="1480.5" y="601.5" width="5" height="5"/>
        <rect x="1485.5" y="601.5" width="5" height="5"/>
        <rect x="1490.5" y="601.5" width="5" height="5"/>
        <rect x="1495.5" y="601.5" width="5" height="5"/>
        <rect x="1505.5" y="601.5" width="5" height="5"/>
        <rect x="1510.5" y="601.5" width="5" height="5"/>
        <rect x="1515.5" y="601.5" width="5" height="5"/>
        <rect x="1520.5" y="601.5" width="5" height="5"/>
        <rect x="1525.5" y="601.5" width="5" height="5"/>
        <rect x="1530.5" y="601.5" width="5" height="5"/>
        <rect x="1535.5" y="601.5" width="5" height="5"/>
        <rect x="1395.5" y="606.5" width="5" height="5"/>
        <rect x="1425.5" y="606.5" width="5" height="5"/>
        <rect x="1445.5" y="606.5" width="5" height="5"/>
        <rect x="1460.5" y="606.5" width="5" height="5"/>
        <rect x="1465.5" y="606.5" width="5" height="5"/>
        <rect x="1470.5" y="606.5" width="5" height="5"/>
        <rect x="1475.5" y="606.5" width="5" height="5"/>
        <rect x="1485.5" y="606.5" width="5" height="5"/>
        <rect x="1505.5" y="606.5" width="5" height="5"/>
        <rect x="1535.5" y="606.5" width="5" height="5"/>
        <rect x="1395.5" y="611.5" width="5" height="5"/>
        <rect x="1405.5" y="611.5" width="5" height="5"/>
        <rect x="1410.5" y="611.5" width="5" height="5"/>
        <rect x="1415.5" y="611.5" width="5" height="5"/>
        <rect x="1425.5" y="611.5" width="5" height="5"/>
        <rect x="1435.5" y="611.5" width="5" height="5"/>
        <rect x="1440.5" y="611.5" width="5" height="5"/>
        <rect x="1450.5" y="611.5" width="5" height="5"/>
        <rect x="1460.5" y="611.5" width="5" height="5"/>
        <rect x="1475.5" y="611.5" width="5" height="5"/>
        <rect x="1490.5" y="611.5" width="5" height="5"/>
        <rect x="1495.5" y="611.5" width="5" height="5"/>
        <rect x="1505.5" y="611.5" width="5" height="5"/>
        <rect x="1515.5" y="611.5" width="5" height="5"/>
        <rect x="1520.5" y="611.5" width="5" height="5"/>
        <rect x="1525.5" y="611.5" width="5" height="5"/>
        <rect x="1535.5" y="611.5" width="5" height="5"/>
        <rect x="1395.5" y="616.5" width="5" height="5"/>
        <rect x="1405.5" y="616.5" width="5" height="5"/>
        <rect x="1410.5" y="616.5" width="5" height="5"/>
        <rect x="1415.5" y="616.5" width="5" height="5"/>
        <rect x="1425.5" y="616.5" width="5" height="5"/>
        <rect x="1435.5" y="616.5" width="5" height="5"/>
        <rect x="1445.5" y="616.5" width="5" height="5"/>
        <rect x="1450.5" y="616.5" width="5" height="5"/>
        <rect x="1465.5" y="616.5" width="5" height="5"/>
        <rect x="1480.5" y="616.5" width="5" height="5"/>
        <rect x="1490.5" y="616.5" width="5" height="5"/>
        <rect x="1505.5" y="616.5" width="5" height="5"/>
        <rect x="1515.5" y="616.5" width="5" height="5"/>
        <rect x="1520.5" y="616.5" width="5" height="5"/>
        <rect x="1525.5" y="616.5" width="5" height="5"/>
        <rect x="1535.5" y="616.5" width="5" height="5"/>
        <rect x="1395.5" y="621.5" width="5" height="5"/>
        <rect x="1405.5" y="621.5" width="5" height="5"/>
        <rect x="1410.5" y="621.5" width="5" height="5"/>
        <rect x="1415.5" y="621.5" width="5" height="5"/>
        <rect x="1425.5" y="621.5" width="5" height="5"/>
        <rect x="1435.5" y="621.5" width="5" height="5"/>
        <rect x="1440.5" y="621.5" width="5" height="5"/>
        <rect x="1480.5" y="621.5" width="5" height="5"/>
        <rect x="1485.5" y="621.5" width="5" height="5"/>
        <rect x="1490.5" y="621.5" width="5" height="5"/>
        <rect x="1505.5" y="621.5" width="5" height="5"/>
        <rect x="1515.5" y="621.5" width="5" height="5"/>
        <rect x="1520.5" y="621.5" width="5" height="5"/>
        <rect x="1525.5" y="621.5" width="5" height="5"/>
        <rect x="1535.5" y="621.5" width="5" height="5"/>
        <rect x="1395.5" y="626.5" width="5" height="5"/>
        <rect x="1425.5" y="626.5" width="5" height="5"/>
        <rect x="1435.5" y="626.5" width="5" height="5"/>
        <rect x="1450.5" y="626.5" width="5" height="5"/>
        <rect x="1455.5" y="626.5" width="5" height="5"/>
        <rect x="1470.5" y="626.5" width="5" height="5"/>
        <rect x="1480.5" y="626.5" width="5" height="5"/>
        <rect x="1505.5" y="626.5" width="5" height="5"/>
        <rect x="1535.5" y="626.5" width="5" height="5"/>
        <rect x="1395.5" y="631.5" width="5" height="5"/>
        <rect x="1400.5" y="631.5" width="5" height="5"/>
        <rect x="1405.5" y="631.5" width="5" height="5"/>
        <rect x="1410.5" y="631.5" width="5" height="5"/>
        <rect x="1415.5" y="631.5" width="5" height="5"/>
        <rect x="1420.5" y="631.5" width="5" height="5"/>
        <rect x="1425.5" y="631.5" width="5" height="5"/>
        <rect x="1435.5" y="631.5" width="5" height="5"/>
        <rect x="1445.5" y="631.5" width="5" height="5"/>
        <rect x="1455.5" y="631.5" width="5" height="5"/>
        <rect x="1465.5" y="631.5" width="5" height="5"/>
        <rect x="1475.5" y="631.5" width="5" height="5"/>
        <rect x="1485.5" y="631.5" width="5" height="5"/>
        <rect x="1495.5" y="631.5" width="5" height="5"/>
        <rect x="1505.5" y="631.5" width="5" height="5"/>
        <rect x="1510.5" y="631.5" width="5" height="5"/>
        <rect x="1515.5" y="631.5" width="5" height="5"/>
        <rect x="1520.5" y="631.5" width="5" height="5"/>
        <rect x="1525.5" y="631.5" width="5" height="5"/>
        <rect x="1530.5" y="631.5" width="5" height="5"/>
        <rect x="1535.5" y="631.5" width="5" height="5"/>
        <rect x="1435.5" y="636.5" width="5" height="5"/>
        <rect x="1450.5" y="636.5" width="5" height="5"/>
        <rect x="1455.5" y="636.5" width="5" height="5"/>
        <rect x="1465.5" y="636.5" width="5" height="5"/>
        <rect x="1490.5" y="636.5" width="5" height="5"/>
        <rect x="1395.5" y="641.5" width="5" height="5"/>
        <rect x="1405.5" y="641.5" width="5" height="5"/>
        <rect x="1410.5" y="641.5" width="5" height="5"/>
        <rect x="1415.5" y="641.5" width="5" height="5"/>
        <rect x="1420.5" y="641.5" width="5" height="5"/>
        <rect x="1425.5" y="641.5" width="5" height="5"/>
        <rect x="1440.5" y="641.5" width="5" height="5"/>
        <rect x="1450.5" y="641.5" width="5" height="5"/>
        <rect x="1455.5" y="641.5" width="5" height="5"/>
        <rect x="1470.5" y="641.5" width="5" height="5"/>
        <rect x="1480.5" y="641.5" width="5" height="5"/>
        <rect x="1485.5" y="641.5" width="5" height="5"/>
        <rect x="1505.5" y="641.5" width="5" height="5"/>
        <rect x="1510.5" y="641.5" width="5" height="5"/>
        <rect x="1515.5" y="641.5" width="5" height="5"/>
        <rect x="1520.5" y="641.5" width="5" height="5"/>
        <rect x="1525.5" y="641.5" width="5" height="5"/>
        <rect x="1395.5" y="646.5" width="5" height="5"/>
        <rect x="1400.5" y="646.5" width="5" height="5"/>
        <rect x="1405.5" y="646.5" width="5" height="5"/>
        <rect x="1410.5" y="646.5" width="5" height="5"/>
        <rect x="1420.5" y="646.5" width="5" height="5"/>
        <rect x="1435.5" y="646.5" width="5" height="5"/>
        <rect x="1445.5" y="646.5" width="5" height="5"/>
        <rect x="1450.5" y="646.5" width="5" height="5"/>
        <rect x="1455.5" y="646.5" width="5" height="5"/>
        <rect x="1460.5" y="646.5" width="5" height="5"/>
        <rect x="1465.5" y="646.5" width="5" height="5"/>
        <rect x="1475.5" y="646.5" width="5" height="5"/>
        <rect x="1480.5" y="646.5" width="5" height="5"/>
        <rect x="1485.5" y="646.5" width="5" height="5"/>
        <rect x="1490.5" y="646.5" width="5" height="5"/>
        <rect x="1495.5" y="646.5" width="5" height="5"/>
        <rect x="1505.5" y="646.5" width="5" height="5"/>
        <rect x="1515.5" y="646.5" width="5" height="5"/>
        <rect x="1535.5" y="646.5" width="5" height="5"/>
        <rect x="1395.5" y="651.5" width="5" height="5"/>
        <rect x="1420.5" y="651.5" width="5" height="5"/>
        <rect x="1425.5" y="651.5" width="5" height="5"/>
        <rect x="1445.5" y="651.5" width="5" height="5"/>
        <rect x="1455.5" y="651.5" width="5" height="5"/>
        <rect x="1460.5" y="651.5" width="5" height="5"/>
        <rect x="1465.5" y="651.5" width="5" height="5"/>
        <rect x="1470.5" y="651.5" width="5" height="5"/>
        <rect x="1475.5" y="651.5" width="5" height="5"/>
        <rect x="1480.5" y="651.5" width="5" height="5"/>
        <rect x="1495.5" y="651.5" width="5" height="5"/>
        <rect x="1500.5" y="651.5" width="5" height="5"/>
        <rect x="1515.5" y="651.5" width="5" height="5"/>
        <rect x="1435.5" y="656.5" width="5" height="5"/>
        <rect x="1440.5" y="656.5" width="5" height="5"/>
        <rect x="1445.5" y="656.5" width="5" height="5"/>
        <rect x="1455.5" y="656.5" width="5" height="5"/>
        <rect x="1460.5" y="656.5" width="5" height="5"/>
        <rect x="1470.5" y="656.5" width="5" height="5"/>
        <rect x="1495.5" y="656.5" width="5" height="5"/>
        <rect x="1500.5" y="656.5" width="5" height="5"/>
        <rect x="1515.5" y="656.5" width="5" height="5"/>
        <rect x="1520.5" y="656.5" width="5" height="5"/>
        <rect x="1530.5" y="656.5" width="5" height="5"/>
        <rect x="1400.5" y="661.5" width="5" height="5"/>
        <rect x="1405.5" y="661.5" width="5" height="5"/>
        <rect x="1425.5" y="661.5" width="5" height="5"/>
        <rect x="1435.5" y="661.5" width="5" height="5"/>
        <rect x="1440.5" y="661.5" width="5" height="5"/>
        <rect x="1455.5" y="661.5" width="5" height="5"/>
        <rect x="1465.5" y="661.5" width="5" height="5"/>
        <rect x="1470.5" y="661.5" width="5" height="5"/>
        <rect x="1495.5" y="661.5" width="5" height="5"/>
        <rect x="1500.5" y="661.5" width="5" height="5"/>
        <rect x="1510.5" y="661.5" width="5" height="5"/>
        <rect x="1520.5" y="661.5" width="5" height="5"/>
        <rect x="1525.5" y="661.5" width="5" height="5"/>
        <rect x="1410.5" y="666.5" width="5" height="5"/>
        <rect x="1415.5" y="666.5" width="5" height="5"/>
        <rect x="1430.5" y="666.5" width="5" height="5"/>
        <rect x="1445.5" y="666.5" width="5" height="5"/>
        <rect x="1455.5" y="666.5" width="5" height="5"/>
        <rect x="1475.5" y="666.5" width="5" height="5"/>
        <rect x="1480.5" y="666.5" width="5" height="5"/>
        <rect x="1485.5" y="666.5" width="5" height="5"/>
        <rect x="1490.5" y="666.5" width="5" height="5"/>
        <rect x="1495.5" y="666.5" width="5" height="5"/>
        <rect x="1505.5" y="666.5" width="5" height="5"/>
        <rect x="1515.5" y="666.5" width="5" height="5"/>
        <rect x="1535.5" y="666.5" width="5" height="5"/>
        <rect x="1395.5" y="671.5" width="5" height="5"/>
        <rect x="1420.5" y="671.5" width="5" height="5"/>
        <rect x="1425.5" y="671.5" width="5" height="5"/>
        <rect x="1435.5" y="671.5" width="5" height="5"/>
        <rect x="1440.5" y="671.5" width="5" height="5"/>
        <rect x="1445.5" y="671.5" width="5" height="5"/>
        <rect x="1455.5" y="671.5" width="5" height="5"/>
        <rect x="1470.5" y="671.5" width="5" height="5"/>
        <rect x="1520.5" y="671.5" width="5" height="5"/>
        <rect x="1525.5" y="671.5" width="5" height="5"/>
        <rect x="1400.5" y="676.5" width="5" height="5"/>
        <rect x="1405.5" y="676.5" width="5" height="5"/>
        <rect x="1410.5" y="676.5" width="5" height="5"/>
        <rect x="1420.5" y="676.5" width="5" height="5"/>
        <rect x="1435.5" y="676.5" width="5" height="5"/>
        <rect x="1440.5" y="676.5" width="5" height="5"/>
        <rect x="1445.5" y="676.5" width="5" height="5"/>
        <rect x="1455.5" y="676.5" width="5" height="5"/>
        <rect x="1465.5" y="676.5" width="5" height="5"/>
        <rect x="1470.5" y="676.5" width="5" height="5"/>
        <rect x="1475.5" y="676.5" width="5" height="5"/>
        <rect x="1505.5" y="676.5" width="5" height="5"/>
        <rect x="1510.5" y="676.5" width="5" height="5"/>
        <rect x="1515.5" y="676.5" width="5" height="5"/>
        <rect x="1530.5" y="676.5" width="5" height="5"/>
        <rect x="1395.5" y="681.5" width="5" height="5"/>
        <rect x="1405.5" y="681.5" width="5" height="5"/>
        <rect x="1425.5" y="681.5" width="5" height="5"/>
        <rect x="1430.5" y="681.5" width="5" height="5"/>
        <rect x="1450.5" y="681.5" width="5" height="5"/>
        <rect x="1480.5" y="681.5" width="5" height="5"/>
        <rect x="1490.5" y="681.5" width="5" height="5"/>
        <rect x="1500.5" y="681.5" width="5" height="5"/>
        <rect x="1510.5" y="681.5" width="5" height="5"/>
        <rect x="1520.5" y="681.5" width="5" height="5"/>
        <rect x="1525.5" y="681.5" width="5" height="5"/>
        <rect x="1395.5" y="686.5" width="5" height="5"/>
        <rect x="1405.5" y="686.5" width="5" height="5"/>
        <rect x="1410.5" y="686.5" width="5" height="5"/>
        <rect x="1430.5" y="686.5" width="5" height="5"/>
        <rect x="1435.5" y="686.5" width="5" height="5"/>
        <rect x="1445.5" y="686.5" width="5" height="5"/>
        <rect x="1460.5" y="686.5" width="5" height="5"/>
        <rect x="1465.5" y="686.5" width="5" height="5"/>
        <rect x="1470.5" y="686.5" width="5" height="5"/>
        <rect x="1475.5" y="686.5" width="5" height="5"/>
        <rect x="1480.5" y="686.5" width="5" height="5"/>
        <rect x="1485.5" y="686.5" width="5" height="5"/>
        <rect x="1490.5" y="686.5" width="5" height="5"/>
        <rect x="1495.5" y="686.5" width="5" height="5"/>
        <rect x="1500.5" y="686.5" width="5" height="5"/>
        <rect x="1505.5" y="686.5" width="5" height="5"/>
        <rect x="1510.5" y="686.5" width="5" height="5"/>
        <rect x="1515.5" y="686.5" width="5" height="5"/>
        <rect x="1525.5" y="686.5" width="5" height="5"/>
        <rect x="1535.5" y="686.5" width="5" height="5"/>
        <rect x="1395.5" y="691.5" width="5" height="5"/>
        <rect x="1405.5" y="691.5" width="5" height="5"/>
        <rect x="1425.5" y="691.5" width="5" height="5"/>
        <rect x="1430.5" y="691.5" width="5" height="5"/>
        <rect x="1435.5" y="691.5" width="5" height="5"/>
        <rect x="1450.5" y="691.5" width="5" height="5"/>
        <rect x="1455.5" y="691.5" width="5" height="5"/>
        <rect x="1460.5" y="691.5" width="5" height="5"/>
        <rect x="1465.5" y="691.5" width="5" height="5"/>
        <rect x="1470.5" y="691.5" width="5" height="5"/>
        <rect x="1475.5" y="691.5" width="5" height="5"/>
        <rect x="1480.5" y="691.5" width="5" height="5"/>
        <rect x="1505.5" y="691.5" width="5" height="5"/>
        <rect x="1525.5" y="691.5" width="5" height="5"/>
        <rect x="1395.5" y="696.5" width="5" height="5"/>
        <rect x="1405.5" y="696.5" width="5" height="5"/>
        <rect x="1410.5" y="696.5" width="5" height="5"/>
        <rect x="1420.5" y="696.5" width="5" height="5"/>
        <rect x="1430.5" y="696.5" width="5" height="5"/>
        <rect x="1460.5" y="696.5" width="5" height="5"/>
        <rect x="1495.5" y="696.5" width="5" height="5"/>
        <rect x="1500.5" y="696.5" width="5" height="5"/>
        <rect x="1505.5" y="696.5" width="5" height="5"/>
        <rect x="1510.5" y="696.5" width="5" height="5"/>
        <rect x="1530.5" y="696.5" width="5" height="5"/>
        <rect x="1395.5" y="701.5" width="5" height="5"/>
        <rect x="1405.5" y="701.5" width="5" height="5"/>
        <rect x="1410.5" y="701.5" width="5" height="5"/>
        <rect x="1415.5" y="701.5" width="5" height="5"/>
        <rect x="1425.5" y="701.5" width="5" height="5"/>
        <rect x="1445.5" y="701.5" width="5" height="5"/>
        <rect x="1465.5" y="701.5" width="5" height="5"/>
        <rect x="1470.5" y="701.5" width="5" height="5"/>
        <rect x="1480.5" y="701.5" width="5" height="5"/>
        <rect x="1495.5" y="701.5" width="5" height="5"/>
        <rect x="1500.5" y="701.5" width="5" height="5"/>
        <rect x="1505.5" y="701.5" width="5" height="5"/>
        <rect x="1510.5" y="701.5" width="5" height="5"/>
        <rect x="1515.5" y="701.5" width="5" height="5"/>
        <rect x="1525.5" y="701.5" width="5" height="5"/>
        <rect x="1530.5" y="701.5" width="5" height="5"/>
        <rect x="1535.5" y="701.5" width="5" height="5"/>
        <rect x="1435.5" y="706.5" width="5" height="5"/>
        <rect x="1440.5" y="706.5" width="5" height="5"/>
        <rect x="1450.5" y="706.5" width="5" height="5"/>
        <rect x="1455.5" y="706.5" width="5" height="5"/>
        <rect x="1475.5" y="706.5" width="5" height="5"/>
        <rect x="1485.5" y="706.5" width="5" height="5"/>
        <rect x="1490.5" y="706.5" width="5" height="5"/>
        <rect x="1495.5" y="706.5" width="5" height="5"/>
        <rect x="1515.5" y="706.5" width="5" height="5"/>
        <rect x="1520.5" y="706.5" width="5" height="5"/>
        <rect x="1525.5" y="706.5" width="5" height="5"/>
        <rect x="1530.5" y="706.5" width="5" height="5"/>
        <rect x="1535.5" y="706.5" width="5" height="5"/>
        <rect x="1395.5" y="711.5" width="5" height="5"/>
        <rect x="1400.5" y="711.5" width="5" height="5"/>
        <rect x="1405.5" y="711.5" width="5" height="5"/>
        <rect x="1410.5" y="711.5" width="5" height="5"/>
        <rect x="1415.5" y="711.5" width="5" height="5"/>
        <rect x="1420.5" y="711.5" width="5" height="5"/>
        <rect x="1425.5" y="711.5" width="5" height="5"/>
        <rect x="1440.5" y="711.5" width="5" height="5"/>
        <rect x="1455.5" y="711.5" width="5" height="5"/>
        <rect x="1470.5" y="711.5" width="5" height="5"/>
        <rect x="1475.5" y="711.5" width="5" height="5"/>
        <rect x="1480.5" y="711.5" width="5" height="5"/>
        <rect x="1490.5" y="711.5" width="5" height="5"/>
        <rect x="1495.5" y="711.5" width="5" height="5"/>
        <rect x="1505.5" y="711.5" width="5" height="5"/>
        <rect x="1515.5" y="711.5" width="5" height="5"/>
        <rect x="1520.5" y="711.5" width="5" height="5"/>
        <rect x="1525.5" y="711.5" width="5" height="5"/>
        <rect x="1395.5" y="716.5" width="5" height="5"/>
        <rect x="1425.5" y="716.5" width="5" height="5"/>
        <rect x="1435.5" y="716.5" width="5" height="5"/>
        <rect x="1440.5" y="716.5" width="5" height="5"/>
        <rect x="1445.5" y="716.5" width="5" height="5"/>
        <rect x="1450.5" y="716.5" width="5" height="5"/>
        <rect x="1465.5" y="716.5" width="5" height="5"/>
        <rect x="1475.5" y="716.5" width="5" height="5"/>
        <rect x="1490.5" y="716.5" width="5" height="5"/>
        <rect x="1495.5" y="716.5" width="5" height="5"/>
        <rect x="1515.5" y="716.5" width="5" height="5"/>
        <rect x="1530.5" y="716.5" width="5" height="5"/>
        <rect x="1395.5" y="721.5" width="5" height="5"/>
        <rect x="1405.5" y="721.5" width="5" height="5"/>
        <rect x="1410.5" y="721.5" width="5" height="5"/>
        <rect x="1415.5" y="721.5" width="5" height="5"/>
        <rect x="1425.5" y="721.5" width="5" height="5"/>
        <rect x="1435.5" y="721.5" width="5" height="5"/>
        <rect x="1440.5" y="721.5" width="5" height="5"/>
        <rect x="1480.5" y="721.5" width="5" height="5"/>
        <rect x="1495.5" y="721.5" width="5" height="5"/>
        <rect x="1500.5" y="721.5" width="5" height="5"/>
        <rect x="1505.5" y="721.5" width="5" height="5"/>
        <rect x="1510.5" y="721.5" width="5" height="5"/>
        <rect x="1515.5" y="721.5" width="5" height="5"/>
        <rect x="1525.5" y="721.5" width="5" height="5"/>
        <rect x="1395.5" y="726.5" width="5" height="5"/>
        <rect x="1405.5" y="726.5" width="5" height="5"/>
        <rect x="1410.5" y="726.5" width="5" height="5"/>
        <rect x="1415.5" y="726.5" width="5" height="5"/>
        <rect x="1425.5" y="726.5" width="5" height="5"/>
        <rect x="1435.5" y="726.5" width="5" height="5"/>
        <rect x="1440.5" y="726.5" width="5" height="5"/>
        <rect x="1460.5" y="726.5" width="5" height="5"/>
        <rect x="1465.5" y="726.5" width="5" height="5"/>
        <rect x="1475.5" y="726.5" width="5" height="5"/>
        <rect x="1485.5" y="726.5" width="5" height="5"/>
        <rect x="1490.5" y="726.5" width="5" height="5"/>
        <rect x="1520.5" y="726.5" width="5" height="5"/>
        <rect x="1525.5" y="726.5" width="5" height="5"/>
        <rect x="1530.5" y="726.5" width="5" height="5"/>
        <rect x="1535.5" y="726.5" width="5" height="5"/>
        <rect x="1395.5" y="731.5" width="5" height="5"/>
        <rect x="1405.5" y="731.5" width="5" height="5"/>
        <rect x="1410.5" y="731.5" width="5" height="5"/>
        <rect x="1415.5" y="731.5" width="5" height="5"/>
        <rect x="1425.5" y="731.5" width="5" height="5"/>
        <rect x="1435.5" y="731.5" width="5" height="5"/>
        <rect x="1440.5" y="731.5" width="5" height="5"/>
        <rect x="1445.5" y="731.5" width="5" height="5"/>
        <rect x="1455.5" y="731.5" width="5" height="5"/>
        <rect x="1465.5" y="731.5" width="5" height="5"/>
        <rect x="1470.5" y="731.5" width="5" height="5"/>
        <rect x="1485.5" y="731.5" width="5" height="5"/>
        <rect x="1495.5" y="731.5" width="5" height="5"/>
        <rect x="1500.5" y="731.5" width="5" height="5"/>
        <rect x="1505.5" y="731.5" width="5" height="5"/>
        <rect x="1510.5" y="731.5" width="5" height="5"/>
        <rect x="1515.5" y="731.5" width="5" height="5"/>
        <rect x="1520.5" y="731.5" width="5" height="5"/>
        <rect x="1525.5" y="731.5" width="5" height="5"/>
        <rect x="1530.5" y="731.5" width="5" height="5"/>
        <rect x="1395.5" y="736.5" width="5" height="5"/>
        <rect x="1425.5" y="736.5" width="5" height="5"/>
        <rect x="1440.5" y="736.5" width="5" height="5"/>
        <rect x="1455.5" y="736.5" width="5" height="5"/>
        <rect x="1460.5" y="736.5" width="5" height="5"/>
        <rect x="1465.5" y="736.5" width="5" height="5"/>
        <rect x="1470.5" y="736.5" width="5" height="5"/>
        <rect x="1475.5" y="736.5" width="5" height="5"/>
        <rect x="1495.5" y="736.5" width="5" height="5"/>
        <rect x="1515.5" y="736.5" width="5" height="5"/>
        <rect x="1520.5" y="736.5" width="5" height="5"/>
        <rect x="1530.5" y="736.5" width="5" height="5"/>
        <rect x="1395.5" y="741.5" width="5" height="5"/>
        <rect x="1400.5" y="741.5" width="5" height="5"/>
        <rect x="1405.5" y="741.5" width="5" height="5"/>
        <rect x="1410.5" y="741.5" width="5" height="5"/>
        <rect x="1415.5" y="741.5" width="5" height="5"/>
        <rect x="1420.5" y="741.5" width="5" height="5"/>
        <rect x="1425.5" y="741.5" width="5" height="5"/>
        <rect x="1435.5" y="741.5" width="5" height="5"/>
        <rect x="1440.5" y="741.5" width="5" height="5"/>
        <rect x="1445.5" y="741.5" width="5" height="5"/>
        <rect x="1450.5" y="741.5" width="5" height="5"/>
        <rect x="1470.5" y="741.5" width="5" height="5"/>
        <rect x="1480.5" y="741.5" width="5" height="5"/>
        <rect x="1490.5" y="741.5" width="5" height="5"/>
        <rect x="1505.5" y="741.5" width="5" height="5"/>
        <rect x="1510.5" y="741.5" width="5" height="5"/>
        <rect x="1515.5" y="741.5" width="5" height="5"/>
        <rect x="1525.5" y="741.5" width="5" height="5"/>
      </g>
      <text x="1468" y="768" text-anchor="middle"
            font-family="'JetBrains Mono', 'SF Mono', Consolas, monospace"
            font-size="10" letter-spacing="2.6" fill="#7a8a9c">SCAN TO LAUNCH</text>
    </g>

    <!-- Footer line at the bottom of the right column -->
    <text x="912" y="800"
          font-family="'JetBrains Mono', 'SF Mono', Consolas, monospace"
          font-size="10" letter-spacing="2.6" fill="#7a8a9c">
      © 2026 KANCHAN SARKAR  ·  ULM UNIVERSITY
    </text>
    <text x="1546" y="800" text-anchor="end"
          font-family="'JetBrains Mono', 'SF Mono', Consolas, monospace"
          font-size="10" letter-spacing="2.6" fill="#7a8a9c">v 1.0</text>
  </g>
</svg>
