<?xml version="1.0" encoding="UTF-8"?>
<!--
  MogadocLab banner (portrait, 1000 × 1100)
  URL: https://rohinoy-lab.github.io/MogadocLab/
  QR embedded inline (29×29 modules, ECC level M, modules 5px each).
  © 2026 Kanchan Sarkar & Axel Groß · Institut für Theoretische Chemie, Universität Ulm.
-->
<svg xmlns="http://www.w3.org/2000/svg" xmlns:xlink="http://www.w3.org/1999/xlink"
     viewBox="0 0 1000 1100" width="1000" height="1100"
     preserveAspectRatio="xMidYMid meet">

  <defs>
    <radialGradient id="atomC" cx="35%" cy="32%" r="65%">
      <stop offset="0%"   stop-color="#a8b3c2"/>
      <stop offset="55%"  stop-color="#4a5a6e"/>
      <stop offset="100%" stop-color="#1f2a38"/>
    </radialGradient>
    <radialGradient id="atomN" cx="35%" cy="32%" r="65%">
      <stop offset="0%"   stop-color="#7d9bd0"/>
      <stop offset="55%"  stop-color="#2a4d8c"/>
      <stop offset="100%" stop-color="#10203d"/>
    </radialGradient>
    <radialGradient id="atomO" cx="35%" cy="32%" r="65%">
      <stop offset="0%"   stop-color="#e08484"/>
      <stop offset="55%"  stop-color="#a82a2a"/>
      <stop offset="100%" stop-color="#4d1010"/>
    </radialGradient>
  </defs>

  <a href="https://rohinoy-lab.github.io/MogadocLab/"
     xlink:href="https://rohinoy-lab.github.io/MogadocLab/"
     target="_blank" rel="noopener">

    <rect width="1000" height="1100" fill="#fbfcfd"/>
    <rect x="14" y="14" width="972" height="1072"
          fill="none" stroke="#dde3eb" stroke-width="1"/>

    <!-- ═══ HEADER: title left, QR right ═══ -->
    <text x="60" y="155"
          font-family="'Playfair Display','Source Serif Pro',Georgia,serif"
          font-size="86" font-weight="800" fill="#0a1929"
          letter-spacing="-0.5">MogadocLab</text>
    <text x="60" y="200"
          font-family="'DM Sans','Helvetica Neue',Arial,sans-serif"
          font-size="26" font-weight="600" fill="#1e4d8c" letter-spacing="0.3">
      3D Molecular Viewer
    </text>
    <line x1="60" y1="226" x2="380" y2="226"
          stroke="#1e4d8c" stroke-width="1.6"/>

    <!-- Body description — fills the gap between header and molecule -->
    <g font-family="'DM Sans','Helvetica Neue',Arial,sans-serif"
       font-size="17" fill="#3e5269" font-weight="400">
      <text x="60" y="278">
        <tspan x="60" dy="0">In-browser 3D molecular viewer with multi-format</tspan>
        <tspan x="60" dy="26">import — XYZ, MOL, PDB, Gaussian, ORCA, CIF, VASP,</tspan>
        <tspan x="60" dy="26">Quantum ESPRESSO — and high-resolution image export.</tspan>
      </text>
    </g>

    <!-- Status badges: filled navy pills, high contrast -->
    <g id="badges" transform="translate(60, 400)"
       font-family="'JetBrains Mono','SF Mono',Consolas,monospace"
       font-size="13" letter-spacing="2.4" font-weight="600">
      <rect x="0"   y="0" width="160" height="34" rx="4" fill="#1e4d8c"/>
      <text x="80"  y="22" text-anchor="middle" fill="#ffffff">NO INSTALL</text>
      <rect x="172" y="0" width="116" height="34" rx="4" fill="#1e4d8c"/>
      <text x="230" y="22" text-anchor="middle" fill="#ffffff">ONLINE</text>
      <rect x="300" y="0" width="170" height="34" rx="4" fill="#1e4d8c"/>
      <text x="385" y="22" text-anchor="middle" fill="#ffffff">OPEN ACCESS</text>
    </g>

    <!-- ═══ QR (top-right) — substantially larger now ═══ -->
    <g id="qr">
      <rect x="760" y="70" width="180" height="180" rx="3"
            fill="#ffffff" stroke="#1e4d8c" stroke-width="1.6"/>
      <g fill="#0a1929">
        <rect x="777.5" y="87.5" width="5" height="5"/>
        <rect x="782.5" y="87.5" width="5" height="5"/>
        <rect x="787.5" y="87.5" width="5" height="5"/>
        <rect x="792.5" y="87.5" width="5" height="5"/>
        <rect x="797.5" y="87.5" width="5" height="5"/>
        <rect x="802.5" y="87.5" width="5" height="5"/>
        <rect x="807.5" y="87.5" width="5" height="5"/>
        <rect x="822.5" y="87.5" width="5" height="5"/>
        <rect x="847.5" y="87.5" width="5" height="5"/>
        <rect x="852.5" y="87.5" width="5" height="5"/>
        <rect x="872.5" y="87.5" width="5" height="5"/>
        <rect x="887.5" y="87.5" width="5" height="5"/>
        <rect x="892.5" y="87.5" width="5" height="5"/>
        <rect x="897.5" y="87.5" width="5" height="5"/>
        <rect x="902.5" y="87.5" width="5" height="5"/>
        <rect x="907.5" y="87.5" width="5" height="5"/>
        <rect x="912.5" y="87.5" width="5" height="5"/>
        <rect x="917.5" y="87.5" width="5" height="5"/>
        <rect x="777.5" y="92.5" width="5" height="5"/>
        <rect x="807.5" y="92.5" width="5" height="5"/>
        <rect x="817.5" y="92.5" width="5" height="5"/>
        <rect x="822.5" y="92.5" width="5" height="5"/>
        <rect x="832.5" y="92.5" width="5" height="5"/>
        <rect x="852.5" y="92.5" width="5" height="5"/>
        <rect x="857.5" y="92.5" width="5" height="5"/>
        <rect x="862.5" y="92.5" width="5" height="5"/>
        <rect x="867.5" y="92.5" width="5" height="5"/>
        <rect x="872.5" y="92.5" width="5" height="5"/>
        <rect x="877.5" y="92.5" width="5" height="5"/>
        <rect x="887.5" y="92.5" width="5" height="5"/>
        <rect x="917.5" y="92.5" width="5" height="5"/>
        <rect x="777.5" y="97.5" width="5" height="5"/>
        <rect x="787.5" y="97.5" width="5" height="5"/>
        <rect x="792.5" y="97.5" width="5" height="5"/>
        <rect x="797.5" y="97.5" width="5" height="5"/>
        <rect x="807.5" y="97.5" width="5" height="5"/>
        <rect x="822.5" y="97.5" width="5" height="5"/>
        <rect x="832.5" y="97.5" width="5" height="5"/>
        <rect x="837.5" y="97.5" width="5" height="5"/>
        <rect x="852.5" y="97.5" width="5" height="5"/>
        <rect x="867.5" y="97.5" width="5" height="5"/>
        <rect x="877.5" y="97.5" width="5" height="5"/>
        <rect x="887.5" y="97.5" width="5" height="5"/>
        <rect x="897.5" y="97.5" width="5" height="5"/>
        <rect x="902.5" y="97.5" width="5" height="5"/>
        <rect x="907.5" y="97.5" width="5" height="5"/>
        <rect x="917.5" y="97.5" width="5" height="5"/>
        <rect x="777.5" y="102.5" width="5" height="5"/>
        <rect x="787.5" y="102.5" width="5" height="5"/>
        <rect x="792.5" y="102.5" width="5" height="5"/>
        <rect x="797.5" y="102.5" width="5" height="5"/>
        <rect x="807.5" y="102.5" width="5" height="5"/>
        <rect x="832.5" y="102.5" width="5" height="5"/>
        <rect x="842.5" y="102.5" width="5" height="5"/>
        <rect x="847.5" y="102.5" width="5" height="5"/>
        <rect x="867.5" y="102.5" width="5" height="5"/>
        <rect x="887.5" y="102.5" width="5" height="5"/>
        <rect x="897.5" y="102.5" width="5" height="5"/>
        <rect x="902.5" y="102.5" width="5" height="5"/>
        <rect x="907.5" y="102.5" width="5" height="5"/>
        <rect x="917.5" y="102.5" width="5" height="5"/>
        <rect x="777.5" y="107.5" width="5" height="5"/>
        <rect x="787.5" y="107.5" width="5" height="5"/>
        <rect x="792.5" y="107.5" width="5" height="5"/>
        <rect x="797.5" y="107.5" width="5" height="5"/>
        <rect x="807.5" y="107.5" width="5" height="5"/>
        <rect x="817.5" y="107.5" width="5" height="5"/>
        <rect x="832.5" y="107.5" width="5" height="5"/>
        <rect x="837.5" y="107.5" width="5" height="5"/>
        <rect x="842.5" y="107.5" width="5" height="5"/>
        <rect x="847.5" y="107.5" width="5" height="5"/>
        <rect x="852.5" y="107.5" width="5" height="5"/>
        <rect x="862.5" y="107.5" width="5" height="5"/>
        <rect x="867.5" y="107.5" width="5" height="5"/>
        <rect x="872.5" y="107.5" width="5" height="5"/>
        <rect x="887.5" y="107.5" width="5" height="5"/>
        <rect x="897.5" y="107.5" width="5" height="5"/>
        <rect x="902.5" y="107.5" width="5" height="5"/>
        <rect x="907.5" y="107.5" width="5" height="5"/>
        <rect x="917.5" y="107.5" width="5" height="5"/>
        <rect x="777.5" y="112.5" width="5" height="5"/>
        <rect x="807.5" y="112.5" width="5" height="5"/>
        <rect x="822.5" y="112.5" width="5" height="5"/>
        <rect x="832.5" y="112.5" width="5" height="5"/>
        <rect x="837.5" y="112.5" width="5" height="5"/>
        <rect x="842.5" y="112.5" width="5" height="5"/>
        <rect x="847.5" y="112.5" width="5" height="5"/>
        <rect x="852.5" y="112.5" width="5" height="5"/>
        <rect x="862.5" y="112.5" width="5" height="5"/>
        <rect x="872.5" y="112.5" width="5" height="5"/>
        <rect x="877.5" y="112.5" width="5" height="5"/>
        <rect x="887.5" y="112.5" width="5" height="5"/>
        <rect x="917.5" y="112.5" width="5" height="5"/>
        <rect x="777.5" y="117.5" width="5" height="5"/>
        <rect x="782.5" y="117.5" width="5" height="5"/>
        <rect x="787.5" y="117.5" width="5" height="5"/>
        <rect x="792.5" y="117.5" width="5" height="5"/>
        <rect x="797.5" y="117.5" width="5" height="5"/>
        <rect x="802.5" y="117.5" width="5" height="5"/>
        <rect x="807.5" y="117.5" width="5" height="5"/>
        <rect x="817.5" y="117.5" width="5" height="5"/>
        <rect x="827.5" y="117.5" width="5" height="5"/>
        <rect x="837.5" y="117.5" width="5" height="5"/>
        <rect x="847.5" y="117.5" width="5" height="5"/>
        <rect x="857.5" y="117.5" width="5" height="5"/>
        <rect x="867.5" y="117.5" width="5" height="5"/>
        <rect x="877.5" y="117.5" width="5" height="5"/>
        <rect x="887.5" y="117.5" width="5" height="5"/>
        <rect x="892.5" y="117.5" width="5" height="5"/>
        <rect x="897.5" y="117.5" width="5" height="5"/>
        <rect x="902.5" y="117.5" width="5" height="5"/>
        <rect x="907.5" y="117.5" width="5" height="5"/>
        <rect x="912.5" y="117.5" width="5" height="5"/>
        <rect x="917.5" y="117.5" width="5" height="5"/>
        <rect x="822.5" y="122.5" width="5" height="5"/>
        <rect x="827.5" y="122.5" width="5" height="5"/>
        <rect x="832.5" y="122.5" width="5" height="5"/>
        <rect x="837.5" y="122.5" width="5" height="5"/>
        <rect x="842.5" y="122.5" width="5" height="5"/>
        <rect x="852.5" y="122.5" width="5" height="5"/>
        <rect x="857.5" y="122.5" width="5" height="5"/>
        <rect x="862.5" y="122.5" width="5" height="5"/>
        <rect x="877.5" y="122.5" width="5" height="5"/>
        <rect x="777.5" y="127.5" width="5" height="5"/>
        <rect x="787.5" y="127.5" width="5" height="5"/>
        <rect x="797.5" y="127.5" width="5" height="5"/>
        <rect x="807.5" y="127.5" width="5" height="5"/>
        <rect x="827.5" y="127.5" width="5" height="5"/>
        <rect x="832.5" y="127.5" width="5" height="5"/>
        <rect x="837.5" y="127.5" width="5" height="5"/>
        <rect x="842.5" y="127.5" width="5" height="5"/>
        <rect x="857.5" y="127.5" width="5" height="5"/>
        <rect x="862.5" y="127.5" width="5" height="5"/>
        <rect x="877.5" y="127.5" width="5" height="5"/>
        <rect x="897.5" y="127.5" width="5" height="5"/>
        <rect x="912.5" y="127.5" width="5" height="5"/>
        <rect x="777.5" y="132.5" width="5" height="5"/>
        <rect x="782.5" y="132.5" width="5" height="5"/>
        <rect x="787.5" y="132.5" width="5" height="5"/>
        <rect x="792.5" y="132.5" width="5" height="5"/>
        <rect x="802.5" y="132.5" width="5" height="5"/>
        <rect x="817.5" y="132.5" width="5" height="5"/>
        <rect x="822.5" y="132.5" width="5" height="5"/>
        <rect x="827.5" y="132.5" width="5" height="5"/>
        <rect x="842.5" y="132.5" width="5" height="5"/>
        <rect x="857.5" y="132.5" width="5" height="5"/>
        <rect x="862.5" y="132.5" width="5" height="5"/>
        <rect x="867.5" y="132.5" width="5" height="5"/>
        <rect x="877.5" y="132.5" width="5" height="5"/>
        <rect x="882.5" y="132.5" width="5" height="5"/>
        <rect x="887.5" y="132.5" width="5" height="5"/>
        <rect x="902.5" y="132.5" width="5" height="5"/>
        <rect x="917.5" y="132.5" width="5" height="5"/>
        <rect x="782.5" y="137.5" width="5" height="5"/>
        <rect x="797.5" y="137.5" width="5" height="5"/>
        <rect x="807.5" y="137.5" width="5" height="5"/>
        <rect x="822.5" y="137.5" width="5" height="5"/>
        <rect x="832.5" y="137.5" width="5" height="5"/>
        <rect x="837.5" y="137.5" width="5" height="5"/>
        <rect x="847.5" y="137.5" width="5" height="5"/>
        <rect x="877.5" y="137.5" width="5" height="5"/>
        <rect x="882.5" y="137.5" width="5" height="5"/>
        <rect x="892.5" y="137.5" width="5" height="5"/>
        <rect x="897.5" y="137.5" width="5" height="5"/>
        <rect x="907.5" y="137.5" width="5" height="5"/>
        <rect x="912.5" y="137.5" width="5" height="5"/>
        <rect x="917.5" y="137.5" width="5" height="5"/>
        <rect x="777.5" y="142.5" width="5" height="5"/>
        <rect x="782.5" y="142.5" width="5" height="5"/>
        <rect x="817.5" y="142.5" width="5" height="5"/>
        <rect x="822.5" y="142.5" width="5" height="5"/>
        <rect x="827.5" y="142.5" width="5" height="5"/>
        <rect x="837.5" y="142.5" width="5" height="5"/>
        <rect x="842.5" y="142.5" width="5" height="5"/>
        <rect x="847.5" y="142.5" width="5" height="5"/>
        <rect x="852.5" y="142.5" width="5" height="5"/>
        <rect x="862.5" y="142.5" width="5" height="5"/>
        <rect x="867.5" y="142.5" width="5" height="5"/>
        <rect x="877.5" y="142.5" width="5" height="5"/>
        <rect x="882.5" y="142.5" width="5" height="5"/>
        <rect x="887.5" y="142.5" width="5" height="5"/>
        <rect x="892.5" y="142.5" width="5" height="5"/>
        <rect x="897.5" y="142.5" width="5" height="5"/>
        <rect x="912.5" y="142.5" width="5" height="5"/>
        <rect x="777.5" y="147.5" width="5" height="5"/>
        <rect x="782.5" y="147.5" width="5" height="5"/>
        <rect x="787.5" y="147.5" width="5" height="5"/>
        <rect x="792.5" y="147.5" width="5" height="5"/>
        <rect x="807.5" y="147.5" width="5" height="5"/>
        <rect x="822.5" y="147.5" width="5" height="5"/>
        <rect x="832.5" y="147.5" width="5" height="5"/>
        <rect x="837.5" y="147.5" width="5" height="5"/>
        <rect x="842.5" y="147.5" width="5" height="5"/>
        <rect x="857.5" y="147.5" width="5" height="5"/>
        <rect x="862.5" y="147.5" width="5" height="5"/>
        <rect x="872.5" y="147.5" width="5" height="5"/>
        <rect x="877.5" y="147.5" width="5" height="5"/>
        <rect x="882.5" y="147.5" width="5" height="5"/>
        <rect x="887.5" y="147.5" width="5" height="5"/>
        <rect x="902.5" y="147.5" width="5" height="5"/>
        <rect x="912.5" y="147.5" width="5" height="5"/>
        <rect x="917.5" y="147.5" width="5" height="5"/>
        <rect x="777.5" y="152.5" width="5" height="5"/>
        <rect x="782.5" y="152.5" width="5" height="5"/>
        <rect x="797.5" y="152.5" width="5" height="5"/>
        <rect x="817.5" y="152.5" width="5" height="5"/>
        <rect x="822.5" y="152.5" width="5" height="5"/>
        <rect x="842.5" y="152.5" width="5" height="5"/>
        <rect x="857.5" y="152.5" width="5" height="5"/>
        <rect x="862.5" y="152.5" width="5" height="5"/>
        <rect x="882.5" y="152.5" width="5" height="5"/>
        <rect x="887.5" y="152.5" width="5" height="5"/>
        <rect x="902.5" y="152.5" width="5" height="5"/>
        <rect x="917.5" y="152.5" width="5" height="5"/>
        <rect x="777.5" y="157.5" width="5" height="5"/>
        <rect x="782.5" y="157.5" width="5" height="5"/>
        <rect x="787.5" y="157.5" width="5" height="5"/>
        <rect x="797.5" y="157.5" width="5" height="5"/>
        <rect x="802.5" y="157.5" width="5" height="5"/>
        <rect x="807.5" y="157.5" width="5" height="5"/>
        <rect x="822.5" y="157.5" width="5" height="5"/>
        <rect x="837.5" y="157.5" width="5" height="5"/>
        <rect x="842.5" y="157.5" width="5" height="5"/>
        <rect x="847.5" y="157.5" width="5" height="5"/>
        <rect x="862.5" y="157.5" width="5" height="5"/>
        <rect x="867.5" y="157.5" width="5" height="5"/>
        <rect x="877.5" y="157.5" width="5" height="5"/>
        <rect x="882.5" y="157.5" width="5" height="5"/>
        <rect x="897.5" y="157.5" width="5" height="5"/>
        <rect x="902.5" y="157.5" width="5" height="5"/>
        <rect x="912.5" y="157.5" width="5" height="5"/>
        <rect x="917.5" y="157.5" width="5" height="5"/>
        <rect x="777.5" y="162.5" width="5" height="5"/>
        <rect x="782.5" y="162.5" width="5" height="5"/>
        <rect x="792.5" y="162.5" width="5" height="5"/>
        <rect x="797.5" y="162.5" width="5" height="5"/>
        <rect x="812.5" y="162.5" width="5" height="5"/>
        <rect x="817.5" y="162.5" width="5" height="5"/>
        <rect x="822.5" y="162.5" width="5" height="5"/>
        <rect x="827.5" y="162.5" width="5" height="5"/>
        <rect x="832.5" y="162.5" width="5" height="5"/>
        <rect x="837.5" y="162.5" width="5" height="5"/>
        <rect x="842.5" y="162.5" width="5" height="5"/>
        <rect x="857.5" y="162.5" width="5" height="5"/>
        <rect x="862.5" y="162.5" width="5" height="5"/>
        <rect x="887.5" y="162.5" width="5" height="5"/>
        <rect x="892.5" y="162.5" width="5" height="5"/>
        <rect x="897.5" y="162.5" width="5" height="5"/>
        <rect x="902.5" y="162.5" width="5" height="5"/>
        <rect x="912.5" y="162.5" width="5" height="5"/>
        <rect x="802.5" y="167.5" width="5" height="5"/>
        <rect x="807.5" y="167.5" width="5" height="5"/>
        <rect x="817.5" y="167.5" width="5" height="5"/>
        <rect x="822.5" y="167.5" width="5" height="5"/>
        <rect x="827.5" y="167.5" width="5" height="5"/>
        <rect x="842.5" y="167.5" width="5" height="5"/>
        <rect x="847.5" y="167.5" width="5" height="5"/>
        <rect x="857.5" y="167.5" width="5" height="5"/>
        <rect x="862.5" y="167.5" width="5" height="5"/>
        <rect x="867.5" y="167.5" width="5" height="5"/>
        <rect x="877.5" y="167.5" width="5" height="5"/>
        <rect x="882.5" y="167.5" width="5" height="5"/>
        <rect x="887.5" y="167.5" width="5" height="5"/>
        <rect x="902.5" y="167.5" width="5" height="5"/>
        <rect x="912.5" y="167.5" width="5" height="5"/>
        <rect x="917.5" y="167.5" width="5" height="5"/>
        <rect x="787.5" y="172.5" width="5" height="5"/>
        <rect x="792.5" y="172.5" width="5" height="5"/>
        <rect x="812.5" y="172.5" width="5" height="5"/>
        <rect x="822.5" y="172.5" width="5" height="5"/>
        <rect x="832.5" y="172.5" width="5" height="5"/>
        <rect x="837.5" y="172.5" width="5" height="5"/>
        <rect x="857.5" y="172.5" width="5" height="5"/>
        <rect x="877.5" y="172.5" width="5" height="5"/>
        <rect x="887.5" y="172.5" width="5" height="5"/>
        <rect x="902.5" y="172.5" width="5" height="5"/>
        <rect x="907.5" y="172.5" width="5" height="5"/>
        <rect x="917.5" y="172.5" width="5" height="5"/>
        <rect x="777.5" y="177.5" width="5" height="5"/>
        <rect x="787.5" y="177.5" width="5" height="5"/>
        <rect x="802.5" y="177.5" width="5" height="5"/>
        <rect x="807.5" y="177.5" width="5" height="5"/>
        <rect x="822.5" y="177.5" width="5" height="5"/>
        <rect x="832.5" y="177.5" width="5" height="5"/>
        <rect x="837.5" y="177.5" width="5" height="5"/>
        <rect x="842.5" y="177.5" width="5" height="5"/>
        <rect x="862.5" y="177.5" width="5" height="5"/>
        <rect x="892.5" y="177.5" width="5" height="5"/>
        <rect x="912.5" y="177.5" width="5" height="5"/>
        <rect x="917.5" y="177.5" width="5" height="5"/>
        <rect x="782.5" y="182.5" width="5" height="5"/>
        <rect x="822.5" y="182.5" width="5" height="5"/>
        <rect x="827.5" y="182.5" width="5" height="5"/>
        <rect x="842.5" y="182.5" width="5" height="5"/>
        <rect x="847.5" y="182.5" width="5" height="5"/>
        <rect x="857.5" y="182.5" width="5" height="5"/>
        <rect x="862.5" y="182.5" width="5" height="5"/>
        <rect x="872.5" y="182.5" width="5" height="5"/>
        <rect x="897.5" y="182.5" width="5" height="5"/>
        <rect x="902.5" y="182.5" width="5" height="5"/>
        <rect x="912.5" y="182.5" width="5" height="5"/>
        <rect x="777.5" y="187.5" width="5" height="5"/>
        <rect x="792.5" y="187.5" width="5" height="5"/>
        <rect x="797.5" y="187.5" width="5" height="5"/>
        <rect x="807.5" y="187.5" width="5" height="5"/>
        <rect x="812.5" y="187.5" width="5" height="5"/>
        <rect x="817.5" y="187.5" width="5" height="5"/>
        <rect x="832.5" y="187.5" width="5" height="5"/>
        <rect x="847.5" y="187.5" width="5" height="5"/>
        <rect x="852.5" y="187.5" width="5" height="5"/>
        <rect x="857.5" y="187.5" width="5" height="5"/>
        <rect x="862.5" y="187.5" width="5" height="5"/>
        <rect x="877.5" y="187.5" width="5" height="5"/>
        <rect x="882.5" y="187.5" width="5" height="5"/>
        <rect x="887.5" y="187.5" width="5" height="5"/>
        <rect x="892.5" y="187.5" width="5" height="5"/>
        <rect x="897.5" y="187.5" width="5" height="5"/>
        <rect x="817.5" y="192.5" width="5" height="5"/>
        <rect x="827.5" y="192.5" width="5" height="5"/>
        <rect x="837.5" y="192.5" width="5" height="5"/>
        <rect x="857.5" y="192.5" width="5" height="5"/>
        <rect x="872.5" y="192.5" width="5" height="5"/>
        <rect x="877.5" y="192.5" width="5" height="5"/>
        <rect x="897.5" y="192.5" width="5" height="5"/>
        <rect x="907.5" y="192.5" width="5" height="5"/>
        <rect x="912.5" y="192.5" width="5" height="5"/>
        <rect x="917.5" y="192.5" width="5" height="5"/>
        <rect x="777.5" y="197.5" width="5" height="5"/>
        <rect x="782.5" y="197.5" width="5" height="5"/>
        <rect x="787.5" y="197.5" width="5" height="5"/>
        <rect x="792.5" y="197.5" width="5" height="5"/>
        <rect x="797.5" y="197.5" width="5" height="5"/>
        <rect x="802.5" y="197.5" width="5" height="5"/>
        <rect x="807.5" y="197.5" width="5" height="5"/>
        <rect x="822.5" y="197.5" width="5" height="5"/>
        <rect x="842.5" y="197.5" width="5" height="5"/>
        <rect x="867.5" y="197.5" width="5" height="5"/>
        <rect x="872.5" y="197.5" width="5" height="5"/>
        <rect x="877.5" y="197.5" width="5" height="5"/>
        <rect x="887.5" y="197.5" width="5" height="5"/>
        <rect x="897.5" y="197.5" width="5" height="5"/>
        <rect x="902.5" y="197.5" width="5" height="5"/>
        <rect x="912.5" y="197.5" width="5" height="5"/>
        <rect x="917.5" y="197.5" width="5" height="5"/>
        <rect x="777.5" y="202.5" width="5" height="5"/>
        <rect x="807.5" y="202.5" width="5" height="5"/>
        <rect x="822.5" y="202.5" width="5" height="5"/>
        <rect x="837.5" y="202.5" width="5" height="5"/>
        <rect x="852.5" y="202.5" width="5" height="5"/>
        <rect x="857.5" y="202.5" width="5" height="5"/>
        <rect x="862.5" y="202.5" width="5" height="5"/>
        <rect x="867.5" y="202.5" width="5" height="5"/>
        <rect x="877.5" y="202.5" width="5" height="5"/>
        <rect x="897.5" y="202.5" width="5" height="5"/>
        <rect x="902.5" y="202.5" width="5" height="5"/>
        <rect x="777.5" y="207.5" width="5" height="5"/>
        <rect x="787.5" y="207.5" width="5" height="5"/>
        <rect x="792.5" y="207.5" width="5" height="5"/>
        <rect x="797.5" y="207.5" width="5" height="5"/>
        <rect x="807.5" y="207.5" width="5" height="5"/>
        <rect x="817.5" y="207.5" width="5" height="5"/>
        <rect x="822.5" y="207.5" width="5" height="5"/>
        <rect x="837.5" y="207.5" width="5" height="5"/>
        <rect x="852.5" y="207.5" width="5" height="5"/>
        <rect x="857.5" y="207.5" width="5" height="5"/>
        <rect x="862.5" y="207.5" width="5" height="5"/>
        <rect x="877.5" y="207.5" width="5" height="5"/>
        <rect x="882.5" y="207.5" width="5" height="5"/>
        <rect x="887.5" y="207.5" width="5" height="5"/>
        <rect x="892.5" y="207.5" width="5" height="5"/>
        <rect x="897.5" y="207.5" width="5" height="5"/>
        <rect x="777.5" y="212.5" width="5" height="5"/>
        <rect x="787.5" y="212.5" width="5" height="5"/>
        <rect x="792.5" y="212.5" width="5" height="5"/>
        <rect x="797.5" y="212.5" width="5" height="5"/>
        <rect x="807.5" y="212.5" width="5" height="5"/>
        <rect x="822.5" y="212.5" width="5" height="5"/>
        <rect x="827.5" y="212.5" width="5" height="5"/>
        <rect x="832.5" y="212.5" width="5" height="5"/>
        <rect x="837.5" y="212.5" width="5" height="5"/>
        <rect x="842.5" y="212.5" width="5" height="5"/>
        <rect x="852.5" y="212.5" width="5" height="5"/>
        <rect x="857.5" y="212.5" width="5" height="5"/>
        <rect x="872.5" y="212.5" width="5" height="5"/>
        <rect x="882.5" y="212.5" width="5" height="5"/>
        <rect x="892.5" y="212.5" width="5" height="5"/>
        <rect x="897.5" y="212.5" width="5" height="5"/>
        <rect x="907.5" y="212.5" width="5" height="5"/>
        <rect x="912.5" y="212.5" width="5" height="5"/>
        <rect x="917.5" y="212.5" width="5" height="5"/>
        <rect x="777.5" y="217.5" width="5" height="5"/>
        <rect x="787.5" y="217.5" width="5" height="5"/>
        <rect x="792.5" y="217.5" width="5" height="5"/>
        <rect x="797.5" y="217.5" width="5" height="5"/>
        <rect x="807.5" y="217.5" width="5" height="5"/>
        <rect x="817.5" y="217.5" width="5" height="5"/>
        <rect x="822.5" y="217.5" width="5" height="5"/>
        <rect x="837.5" y="217.5" width="5" height="5"/>
        <rect x="862.5" y="217.5" width="5" height="5"/>
        <rect x="872.5" y="217.5" width="5" height="5"/>
        <rect x="892.5" y="217.5" width="5" height="5"/>
        <rect x="897.5" y="217.5" width="5" height="5"/>
        <rect x="902.5" y="217.5" width="5" height="5"/>
        <rect x="917.5" y="217.5" width="5" height="5"/>
        <rect x="777.5" y="222.5" width="5" height="5"/>
        <rect x="807.5" y="222.5" width="5" height="5"/>
        <rect x="827.5" y="222.5" width="5" height="5"/>
        <rect x="837.5" y="222.5" width="5" height="5"/>
        <rect x="857.5" y="222.5" width="5" height="5"/>
        <rect x="862.5" y="222.5" width="5" height="5"/>
        <rect x="867.5" y="222.5" width="5" height="5"/>
        <rect x="872.5" y="222.5" width="5" height="5"/>
        <rect x="877.5" y="222.5" width="5" height="5"/>
        <rect x="887.5" y="222.5" width="5" height="5"/>
        <rect x="892.5" y="222.5" width="5" height="5"/>
        <rect x="897.5" y="222.5" width="5" height="5"/>
        <rect x="912.5" y="222.5" width="5" height="5"/>
        <rect x="777.5" y="227.5" width="5" height="5"/>
        <rect x="782.5" y="227.5" width="5" height="5"/>
        <rect x="787.5" y="227.5" width="5" height="5"/>
        <rect x="792.5" y="227.5" width="5" height="5"/>
        <rect x="797.5" y="227.5" width="5" height="5"/>
        <rect x="802.5" y="227.5" width="5" height="5"/>
        <rect x="807.5" y="227.5" width="5" height="5"/>
        <rect x="817.5" y="227.5" width="5" height="5"/>
        <rect x="827.5" y="227.5" width="5" height="5"/>
        <rect x="832.5" y="227.5" width="5" height="5"/>
        <rect x="837.5" y="227.5" width="5" height="5"/>
        <rect x="842.5" y="227.5" width="5" height="5"/>
        <rect x="847.5" y="227.5" width="5" height="5"/>
        <rect x="852.5" y="227.5" width="5" height="5"/>
        <rect x="857.5" y="227.5" width="5" height="5"/>
        <rect x="862.5" y="227.5" width="5" height="5"/>
        <rect x="867.5" y="227.5" width="5" height="5"/>
        <rect x="872.5" y="227.5" width="5" height="5"/>
        <rect x="877.5" y="227.5" width="5" height="5"/>
        <rect x="882.5" y="227.5" width="5" height="5"/>
        <rect x="887.5" y="227.5" width="5" height="5"/>
        <rect x="897.5" y="227.5" width="5" height="5"/>
        <rect x="902.5" y="227.5" width="5" height="5"/>
        <rect x="912.5" y="227.5" width="5" height="5"/>
        <rect x="917.5" y="227.5" width="5" height="5"/>
      </g>
      <text x="850.0" y="274" text-anchor="middle"
            font-family="'JetBrains Mono','SF Mono',Consolas,monospace"
            font-size="12" letter-spacing="3" font-weight="600" fill="#1e4d8c">SCAN TO LAUNCH</text>
    </g>

    <!-- ═══ MOLECULE ═══ -->
    <g id="molecule">
      <line x1="500.0" y1="545.0" x2="582.3" y2="592.5" stroke="#5c7090" stroke-width="3.5" stroke-linecap="round"/>
      <line x1="582.3" y1="592.5" x2="582.3" y2="687.5" stroke="#5c7090" stroke-width="3.5" stroke-linecap="round"/>
      <line x1="576.3" y1="596.5" x2="576.3" y2="683.5" stroke="#5c7090" stroke-width="2.4" stroke-linecap="round"/>
      <line x1="582.3" y1="687.5" x2="500.0" y2="735.0" stroke="#5c7090" stroke-width="3.5" stroke-linecap="round"/>
      <line x1="500.0" y1="735.0" x2="417.7" y2="687.5" stroke="#5c7090" stroke-width="3.5" stroke-linecap="round"/>
      <line x1="499.5" y1="727.8" x2="424.2" y2="684.3" stroke="#5c7090" stroke-width="2.4" stroke-linecap="round"/>
      <line x1="417.7" y1="687.5" x2="417.7" y2="592.5" stroke="#5c7090" stroke-width="3.5" stroke-linecap="round"/>
      <line x1="417.7" y1="592.5" x2="500.0" y2="545.0" stroke="#5c7090" stroke-width="3.5" stroke-linecap="round"/>
      <line x1="424.2" y1="595.7" x2="499.5" y2="552.2" stroke="#5c7090" stroke-width="2.4" stroke-linecap="round"/>
      <line x1="500.0" y1="545.0" x2="500.0" y2="463.0" stroke="#5c7090" stroke-width="3.5" stroke-linecap="round"/>
      <line x1="500.0" y1="735.0" x2="500.0" y2="817.0" stroke="#5c7090" stroke-width="3.5" stroke-linecap="round"/>
      <line x1="500.0" y1="817.0" x2="572.0" y2="859.0" stroke="#5c7090" stroke-width="3.5" stroke-linecap="round"/>
      <line x1="572.0" y1="859.0" x2="620.0" y2="825.0" stroke="#5c7090" stroke-width="3.5" stroke-linecap="round"/>
      <line x1="578.4" y1="861.2" x2="619.9" y2="831.8" stroke="#5c7090" stroke-width="2.4" stroke-linecap="round"/>
      <line x1="572.0" y1="859.0" x2="614.0" y2="929.0" stroke="#5c7090" stroke-width="3.5" stroke-linecap="round"/>
      <circle cx="500.0" cy="545.0" r="15" fill="url(#atomC)"/>
      <circle cx="582.3" cy="592.5" r="15" fill="url(#atomC)"/>
      <circle cx="582.3" cy="687.5" r="15" fill="url(#atomC)"/>
      <circle cx="500.0" cy="735.0" r="15" fill="url(#atomC)"/>
      <circle cx="417.7" cy="687.5" r="15" fill="url(#atomC)"/>
      <circle cx="417.7" cy="592.5" r="15" fill="url(#atomC)"/>
      <circle cx="500.0" cy="463.0" r="17" fill="url(#atomO)"/>
      <circle cx="500.0" cy="817.0" r="16" fill="url(#atomN)"/>
      <circle cx="572.0" cy="859.0" r="15" fill="url(#atomC)"/>
      <circle cx="620.0" cy="825.0" r="17" fill="url(#atomO)"/>
      <circle cx="614.0" cy="929.0" r="15" fill="url(#atomC)"/>
    </g>

    <!-- ═══ CTA ═══ -->
    <text x="500.0" y="935" text-anchor="middle"
          font-family="'JetBrains Mono','SF Mono',Consolas,monospace"
          font-size="13" letter-spacing="3.2" font-weight="600" fill="#1e4d8c">— LAUNCH</text>
    <text x="500.0" y="998" text-anchor="middle"
          font-family="'Playfair Display','Source Serif Pro',Georgia,serif"
          font-size="50" font-weight="700" fill="#1e4d8c">Open the viewer  →</text>
    <line x1="280.0" y1="1020" x2="720.0" y2="1020"
          stroke="#1e4d8c" stroke-width="1.4"/>
    <text x="500.0" y="1050" text-anchor="middle"
          font-family="'DM Sans','Helvetica Neue',Arial,sans-serif"
          font-size="15" fill="#3e5269">
      Click the banner or scan the QR code — opens in a new tab.
    </text>

    <!-- ═══ FOOTER ═══ -->
    <text x="500.0" y="1080" text-anchor="middle"
          font-family="'JetBrains Mono','SF Mono',Consolas,monospace"
          font-size="11" letter-spacing="2.4" fill="#7a8a9c">
      PARACETAMOL  ·  C₈H₉NO₂  ·  © 2026 K. SARKAR &amp; A. GROSS  ·  INST. THEORETISCHE CHEMIE, UNIV. ULM
    </text>

  </a>
</svg>

