<?xml version="1.0" encoding="UTF-8"?>
<!-- QR for https://rohinoy-lab.github.io/MogadocLab/  (version 3, ECC level M, 29×29 modules) -->
<svg xmlns="http://www.w3.org/2000/svg" viewBox="0 0 528 528" width="528" height="528">
  <rect width="528" height="528" fill="#ffffff"/>
  <g fill="#0a1929">
    <rect x="32" y="32" width="16" height="16"/>
    <rect x="48" y="32" width="16" height="16"/>
    <rect x="64" y="32" width="16" height="16"/>
    <rect x="80" y="32" width="16" height="16"/>
    <rect x="96" y="32" width="16" height="16"/>
    <rect x="112" y="32" width="16" height="16"/>
    <rect x="128" y="32" width="16" height="16"/>
    <rect x="176" y="32" width="16" height="16"/>
    <rect x="256" y="32" width="16" height="16"/>
    <rect x="272" y="32" width="16" height="16"/>
    <rect x="336" y="32" width="16" height="16"/>
    <rect x="384" y="32" width="16" height="16"/>
    <rect x="400" y="32" width="16" height="16"/>
    <rect x="416" y="32" width="16" height="16"/>
    <rect x="432" y="32" width="16" height="16"/>
    <rect x="448" y="32" width="16" height="16"/>
    <rect x="464" y="32" width="16" height="16"/>
    <rect x="480" y="32" width="16" height="16"/>
    <rect x="32" y="48" width="16" height="16"/>
    <rect x="128" y="48" width="16" height="16"/>
    <rect x="160" y="48" width="16" height="16"/>
    <rect x="176" y="48" width="16" height="16"/>
    <rect x="208" y="48" width="16" height="16"/>
    <rect x="272" y="48" width="16" height="16"/>
    <rect x="288" y="48" width="16" height="16"/>
    <rect x="304" y="48" width="16" height="16"/>
    <rect x="320" y="48" width="16" height="16"/>
    <rect x="336" y="48" width="16" height="16"/>
    <rect x="352" y="48" width="16" height="16"/>
    <rect x="384" y="48" width="16" height="16"/>
    <rect x="480" y="48" width="16" height="16"/>
    <rect x="32" y="64" width="16" height="16"/>
    <rect x="64" y="64" width="16" height="16"/>
    <rect x="80" y="64" width="16" height="16"/>
    <rect x="96" y="64" width="16" height="16"/>
    <rect x="128" y="64" width="16" height="16"/>
    <rect x="176" y="64" width="16" height="16"/>
    <rect x="208" y="64" width="16" height="16"/>
    <rect x="224" y="64" width="16" height="16"/>
    <rect x="272" y="64" width="16" height="16"/>
    <rect x="320" y="64" width="16" height="16"/>
    <rect x="352" y="64" width="16" height="16"/>
    <rect x="384" y="64" width="16" height="16"/>
    <rect x="416" y="64" width="16" height="16"/>
    <rect x="432" y="64" width="16" height="16"/>
    <rect x="448" y="64" width="16" height="16"/>
    <rect x="480" y="64" width="16" height="16"/>
    <rect x="32" y="80" width="16" height="16"/>
    <rect x="64" y="80" width="16" height="16"/>
    <rect x="80" y="80" width="16" height="16"/>
    <rect x="96" y="80" width="16" height="16"/>
    <rect x="128" y="80" width="16" height="16"/>
    <rect x="208" y="80" width="16" height="16"/>
    <rect x="240" y="80" width="16" height="16"/>
    <rect x="256" y="80" width="16" height="16"/>
    <rect x="320" y="80" width="16" height="16"/>
    <rect x="384" y="80" width="16" height="16"/>
    <rect x="416" y="80" width="16" height="16"/>
    <rect x="432" y="80" width="16" height="16"/>
    <rect x="448" y="80" width="16" height="16"/>
    <rect x="480" y="80" width="16" height="16"/>
    <rect x="32" y="96" width="16" height="16"/>
    <rect x="64" y="96" width="16" height="16"/>
    <rect x="80" y="96" width="16" height="16"/>
    <rect x="96" y="96" width="16" height="16"/>
    <rect x="128" y="96" width="16" height="16"/>
    <rect x="160" y="96" width="16" height="16"/>
    <rect x="208" y="96" width="16" height="16"/>
    <rect x="224" y="96" width="16" height="16"/>
    <rect x="240" y="96" width="16" height="16"/>
    <rect x="256" y="96" width="16" height="16"/>
    <rect x="272" y="96" width="16" height="16"/>
    <rect x="304" y="96" width="16" height="16"/>
    <rect x="320" y="96" width="16" height="16"/>
    <rect x="336" y="96" width="16" height="16"/>
    <rect x="384" y="96" width="16" height="16"/>
    <rect x="416" y="96" width="16" height="16"/>
    <rect x="432" y="96" width="16" height="16"/>
    <rect x="448" y="96" width="16" height="16"/>
    <rect x="480" y="96" width="16" height="16"/>
    <rect x="32" y="112" width="16" height="16"/>
    <rect x="128" y="112" width="16" height="16"/>
    <rect x="176" y="112" width="16" height="16"/>
    <rect x="208" y="112" width="16" height="16"/>
    <rect x="224" y="112" width="16" height="16"/>
    <rect x="240" y="112" width="16" height="16"/>
    <rect x="256" y="112" width="16" height="16"/>
    <rect x="272" y="112" width="16" height="16"/>
    <rect x="304" y="112" width="16" height="16"/>
    <rect x="336" y="112" width="16" height="16"/>
    <rect x="352" y="112" width="16" height="16"/>
    <rect x="384" y="112" width="16" height="16"/>
    <rect x="480" y="112" width="16" height="16"/>
    <rect x="32" y="128" width="16" height="16"/>
    <rect x="48" y="128" width="16" height="16"/>
    <rect x="64" y="128" width="16" height="16"/>
    <rect x="80" y="128" width="16" height="16"/>
    <rect x="96" y="128" width="16" height="16"/>
    <rect x="112" y="128" width="16" height="16"/>
    <rect x="128" y="128" width="16" height="16"/>
    <rect x="160" y="128" width="16" height="16"/>
    <rect x="192" y="128" width="16" height="16"/>
    <rect x="224" y="128" width="16" height="16"/>
    <rect x="256" y="128" width="16" height="16"/>
    <rect x="288" y="128" width="16" height="16"/>
    <rect x="320" y="128" width="16" height="16"/>
    <rect x="352" y="128" width="16" height="16"/>
    <rect x="384" y="128" width="16" height="16"/>
    <rect x="400" y="128" width="16" height="16"/>
    <rect x="416" y="128" width="16" height="16"/>
    <rect x="432" y="128" width="16" height="16"/>
    <rect x="448" y="128" width="16" height="16"/>
    <rect x="464" y="128" width="16" height="16"/>
    <rect x="480" y="128" width="16" height="16"/>
    <rect x="176" y="144" width="16" height="16"/>
    <rect x="192" y="144" width="16" height="16"/>
    <rect x="208" y="144" width="16" height="16"/>
    <rect x="224" y="144" width="16" height="16"/>
    <rect x="240" y="144" width="16" height="16"/>
    <rect x="272" y="144" width="16" height="16"/>
    <rect x="288" y="144" width="16" height="16"/>
    <rect x="304" y="144" width="16" height="16"/>
    <rect x="352" y="144" width="16" height="16"/>
    <rect x="32" y="160" width="16" height="16"/>
    <rect x="64" y="160" width="16" height="16"/>
    <rect x="96" y="160" width="16" height="16"/>
    <rect x="128" y="160" width="16" height="16"/>
    <rect x="192" y="160" width="16" height="16"/>
    <rect x="208" y="160" width="16" height="16"/>
    <rect x="224" y="160" width="16" height="16"/>
    <rect x="240" y="160" width="16" height="16"/>
    <rect x="288" y="160" width="16" height="16"/>
    <rect x="304" y="160" width="16" height="16"/>
    <rect x="352" y="160" width="16" height="16"/>
    <rect x="416" y="160" width="16" height="16"/>
    <rect x="464" y="160" width="16" height="16"/>
    <rect x="32" y="176" width="16" height="16"/>
    <rect x="48" y="176" width="16" height="16"/>
    <rect x="64" y="176" width="16" height="16"/>
    <rect x="80" y="176" width="16" height="16"/>
    <rect x="112" y="176" width="16" height="16"/>
    <rect x="160" y="176" width="16" height="16"/>
    <rect x="176" y="176" width="16" height="16"/>
    <rect x="192" y="176" width="16" height="16"/>
    <rect x="240" y="176" width="16" height="16"/>
    <rect x="288" y="176" width="16" height="16"/>
    <rect x="304" y="176" width="16" height="16"/>
    <rect x="320" y="176" width="16" height="16"/>
    <rect x="352" y="176" width="16" height="16"/>
    <rect x="368" y="176" width="16" height="16"/>
    <rect x="384" y="176" width="16" height="16"/>
    <rect x="432" y="176" width="16" height="16"/>
    <rect x="480" y="176" width="16" height="16"/>
    <rect x="48" y="192" width="16" height="16"/>
    <rect x="96" y="192" width="16" height="16"/>
    <rect x="128" y="192" width="16" height="16"/>
    <rect x="176" y="192" width="16" height="16"/>
    <rect x="208" y="192" width="16" height="16"/>
    <rect x="224" y="192" width="16" height="16"/>
    <rect x="256" y="192" width="16" height="16"/>
    <rect x="352" y="192" width="16" height="16"/>
    <rect x="368" y="192" width="16" height="16"/>
    <rect x="400" y="192" width="16" height="16"/>
    <rect x="416" y="192" width="16" height="16"/>
    <rect x="448" y="192" width="16" height="16"/>
    <rect x="464" y="192" width="16" height="16"/>
    <rect x="480" y="192" width="16" height="16"/>
    <rect x="32" y="208" width="16" height="16"/>
    <rect x="48" y="208" width="16" height="16"/>
    <rect x="160" y="208" width="16" height="16"/>
    <rect x="176" y="208" width="16" height="16"/>
    <rect x="192" y="208" width="16" height="16"/>
    <rect x="224" y="208" width="16" height="16"/>
    <rect x="240" y="208" width="16" height="16"/>
    <rect x="256" y="208" width="16" height="16"/>
    <rect x="272" y="208" width="16" height="16"/>
    <rect x="304" y="208" width="16" height="16"/>
    <rect x="320" y="208" width="16" height="16"/>
    <rect x="352" y="208" width="16" height="16"/>
    <rect x="368" y="208" width="16" height="16"/>
    <rect x="384" y="208" width="16" height="16"/>
    <rect x="400" y="208" width="16" height="16"/>
    <rect x="416" y="208" width="16" height="16"/>
    <rect x="464" y="208" width="16" height="16"/>
    <rect x="32" y="224" width="16" height="16"/>
    <rect x="48" y="224" width="16" height="16"/>
    <rect x="64" y="224" width="16" height="16"/>
    <rect x="80" y="224" width="16" height="16"/>
    <rect x="128" y="224" width="16" height="16"/>
    <rect x="176" y="224" width="16" height="16"/>
    <rect x="208" y="224" width="16" height="16"/>
    <rect x="224" y="224" width="16" height="16"/>
    <rect x="240" y="224" width="16" height="16"/>
    <rect x="288" y="224" width="16" height="16"/>
    <rect x="304" y="224" width="16" height="16"/>
    <rect x="336" y="224" width="16" height="16"/>
    <rect x="352" y="224" width="16" height="16"/>
    <rect x="368" y="224" width="16" height="16"/>
    <rect x="384" y="224" width="16" height="16"/>
    <rect x="432" y="224" width="16" height="16"/>
    <rect x="464" y="224" width="16" height="16"/>
    <rect x="480" y="224" width="16" height="16"/>
    <rect x="32" y="240" width="16" height="16"/>
    <rect x="48" y="240" width="16" height="16"/>
    <rect x="96" y="240" width="16" height="16"/>
    <rect x="160" y="240" width="16" height="16"/>
    <rect x="176" y="240" width="16" height="16"/>
    <rect x="240" y="240" width="16" height="16"/>
    <rect x="288" y="240" width="16" height="16"/>
    <rect x="304" y="240" width="16" height="16"/>
    <rect x="368" y="240" width="16" height="16"/>
    <rect x="384" y="240" width="16" height="16"/>
    <rect x="432" y="240" width="16" height="16"/>
    <rect x="480" y="240" width="16" height="16"/>
    <rect x="32" y="256" width="16" height="16"/>
    <rect x="48" y="256" width="16" height="16"/>
    <rect x="64" y="256" width="16" height="16"/>
    <rect x="96" y="256" width="16" height="16"/>
    <rect x="112" y="256" width="16" height="16"/>
    <rect x="128" y="256" width="16" height="16"/>
    <rect x="176" y="256" width="16" height="16"/>
    <rect x="224" y="256" width="16" height="16"/>
    <rect x="240" y="256" width="16" height="16"/>
    <rect x="256" y="256" width="16" height="16"/>
    <rect x="304" y="256" width="16" height="16"/>
    <rect x="320" y="256" width="16" height="16"/>
    <rect x="352" y="256" width="16" height="16"/>
    <rect x="368" y="256" width="16" height="16"/>
    <rect x="416" y="256" width="16" height="16"/>
    <rect x="432" y="256" width="16" height="16"/>
    <rect x="464" y="256" width="16" height="16"/>
    <rect x="480" y="256" width="16" height="16"/>
    <rect x="32" y="272" width="16" height="16"/>
    <rect x="48" y="272" width="16" height="16"/>
    <rect x="80" y="272" width="16" height="16"/>
    <rect x="96" y="272" width="16" height="16"/>
    <rect x="144" y="272" width="16" height="16"/>
    <rect x="160" y="272" width="16" height="16"/>
    <rect x="176" y="272" width="16" height="16"/>
    <rect x="192" y="272" width="16" height="16"/>
    <rect x="208" y="272" width="16" height="16"/>
    <rect x="224" y="272" width="16" height="16"/>
    <rect x="240" y="272" width="16" height="16"/>
    <rect x="288" y="272" width="16" height="16"/>
    <rect x="304" y="272" width="16" height="16"/>
    <rect x="384" y="272" width="16" height="16"/>
    <rect x="400" y="272" width="16" height="16"/>
    <rect x="416" y="272" width="16" height="16"/>
    <rect x="432" y="272" width="16" height="16"/>
    <rect x="464" y="272" width="16" height="16"/>
    <rect x="112" y="288" width="16" height="16"/>
    <rect x="128" y="288" width="16" height="16"/>
    <rect x="160" y="288" width="16" height="16"/>
    <rect x="176" y="288" width="16" height="16"/>
    <rect x="192" y="288" width="16" height="16"/>
    <rect x="240" y="288" width="16" height="16"/>
    <rect x="256" y="288" width="16" height="16"/>
    <rect x="288" y="288" width="16" height="16"/>
    <rect x="304" y="288" width="16" height="16"/>
    <rect x="320" y="288" width="16" height="16"/>
    <rect x="352" y="288" width="16" height="16"/>
    <rect x="368" y="288" width="16" height="16"/>
    <rect x="384" y="288" width="16" height="16"/>
    <rect x="432" y="288" width="16" height="16"/>
    <rect x="464" y="288" width="16" height="16"/>
    <rect x="480" y="288" width="16" height="16"/>
    <rect x="64" y="304" width="16" height="16"/>
    <rect x="80" y="304" width="16" height="16"/>
    <rect x="144" y="304" width="16" height="16"/>
    <rect x="176" y="304" width="16" height="16"/>
    <rect x="208" y="304" width="16" height="16"/>
    <rect x="224" y="304" width="16" height="16"/>
    <rect x="288" y="304" width="16" height="16"/>
    <rect x="352" y="304" width="16" height="16"/>
    <rect x="384" y="304" width="16" height="16"/>
    <rect x="432" y="304" width="16" height="16"/>
    <rect x="448" y="304" width="16" height="16"/>
    <rect x="480" y="304" width="16" height="16"/>
    <rect x="32" y="320" width="16" height="16"/>
    <rect x="64" y="320" width="16" height="16"/>
    <rect x="112" y="320" width="16" height="16"/>
    <rect x="128" y="320" width="16" height="16"/>
    <rect x="176" y="320" width="16" height="16"/>
    <rect x="208" y="320" width="16" height="16"/>
    <rect x="224" y="320" width="16" height="16"/>
    <rect x="240" y="320" width="16" height="16"/>
    <rect x="304" y="320" width="16" height="16"/>
    <rect x="400" y="320" width="16" height="16"/>
    <rect x="464" y="320" width="16" height="16"/>
    <rect x="480" y="320" width="16" height="16"/>
    <rect x="48" y="336" width="16" height="16"/>
    <rect x="176" y="336" width="16" height="16"/>
    <rect x="192" y="336" width="16" height="16"/>
    <rect x="240" y="336" width="16" height="16"/>
    <rect x="256" y="336" width="16" height="16"/>
    <rect x="288" y="336" width="16" height="16"/>
    <rect x="304" y="336" width="16" height="16"/>
    <rect x="336" y="336" width="16" height="16"/>
    <rect x="416" y="336" width="16" height="16"/>
    <rect x="432" y="336" width="16" height="16"/>
    <rect x="464" y="336" width="16" height="16"/>
    <rect x="32" y="352" width="16" height="16"/>
    <rect x="80" y="352" width="16" height="16"/>
    <rect x="96" y="352" width="16" height="16"/>
    <rect x="128" y="352" width="16" height="16"/>
    <rect x="144" y="352" width="16" height="16"/>
    <rect x="160" y="352" width="16" height="16"/>
    <rect x="208" y="352" width="16" height="16"/>
    <rect x="256" y="352" width="16" height="16"/>
    <rect x="272" y="352" width="16" height="16"/>
    <rect x="288" y="352" width="16" height="16"/>
    <rect x="304" y="352" width="16" height="16"/>
    <rect x="352" y="352" width="16" height="16"/>
    <rect x="368" y="352" width="16" height="16"/>
    <rect x="384" y="352" width="16" height="16"/>
    <rect x="400" y="352" width="16" height="16"/>
    <rect x="416" y="352" width="16" height="16"/>
    <rect x="160" y="368" width="16" height="16"/>
    <rect x="192" y="368" width="16" height="16"/>
    <rect x="224" y="368" width="16" height="16"/>
    <rect x="288" y="368" width="16" height="16"/>
    <rect x="336" y="368" width="16" height="16"/>
    <rect x="352" y="368" width="16" height="16"/>
    <rect x="416" y="368" width="16" height="16"/>
    <rect x="448" y="368" width="16" height="16"/>
    <rect x="464" y="368" width="16" height="16"/>
    <rect x="480" y="368" width="16" height="16"/>
    <rect x="32" y="384" width="16" height="16"/>
    <rect x="48" y="384" width="16" height="16"/>
    <rect x="64" y="384" width="16" height="16"/>
    <rect x="80" y="384" width="16" height="16"/>
    <rect x="96" y="384" width="16" height="16"/>
    <rect x="112" y="384" width="16" height="16"/>
    <rect x="128" y="384" width="16" height="16"/>
    <rect x="176" y="384" width="16" height="16"/>
    <rect x="240" y="384" width="16" height="16"/>
    <rect x="320" y="384" width="16" height="16"/>
    <rect x="336" y="384" width="16" height="16"/>
    <rect x="352" y="384" width="16" height="16"/>
    <rect x="384" y="384" width="16" height="16"/>
    <rect x="416" y="384" width="16" height="16"/>
    <rect x="432" y="384" width="16" height="16"/>
    <rect x="464" y="384" width="16" height="16"/>
    <rect x="480" y="384" width="16" height="16"/>
    <rect x="32" y="400" width="16" height="16"/>
    <rect x="128" y="400" width="16" height="16"/>
    <rect x="176" y="400" width="16" height="16"/>
    <rect x="224" y="400" width="16" height="16"/>
    <rect x="272" y="400" width="16" height="16"/>
    <rect x="288" y="400" width="16" height="16"/>
    <rect x="304" y="400" width="16" height="16"/>
    <rect x="320" y="400" width="16" height="16"/>
    <rect x="352" y="400" width="16" height="16"/>
    <rect x="416" y="400" width="16" height="16"/>
    <rect x="432" y="400" width="16" height="16"/>
    <rect x="32" y="416" width="16" height="16"/>
    <rect x="64" y="416" width="16" height="16"/>
    <rect x="80" y="416" width="16" height="16"/>
    <rect x="96" y="416" width="16" height="16"/>
    <rect x="128" y="416" width="16" height="16"/>
    <rect x="160" y="416" width="16" height="16"/>
    <rect x="176" y="416" width="16" height="16"/>
    <rect x="224" y="416" width="16" height="16"/>
    <rect x="272" y="416" width="16" height="16"/>
    <rect x="288" y="416" width="16" height="16"/>
    <rect x="304" y="416" width="16" height="16"/>
    <rect x="352" y="416" width="16" height="16"/>
    <rect x="368" y="416" width="16" height="16"/>
    <rect x="384" y="416" width="16" height="16"/>
    <rect x="400" y="416" width="16" height="16"/>
    <rect x="416" y="416" width="16" height="16"/>
    <rect x="32" y="432" width="16" height="16"/>
    <rect x="64" y="432" width="16" height="16"/>
    <rect x="80" y="432" width="16" height="16"/>
    <rect x="96" y="432" width="16" height="16"/>
    <rect x="128" y="432" width="16" height="16"/>
    <rect x="176" y="432" width="16" height="16"/>
    <rect x="192" y="432" width="16" height="16"/>
    <rect x="208" y="432" width="16" height="16"/>
    <rect x="224" y="432" width="16" height="16"/>
    <rect x="240" y="432" width="16" height="16"/>
    <rect x="272" y="432" width="16" height="16"/>
    <rect x="288" y="432" width="16" height="16"/>
    <rect x="336" y="432" width="16" height="16"/>
    <rect x="368" y="432" width="16" height="16"/>
    <rect x="400" y="432" width="16" height="16"/>
    <rect x="416" y="432" width="16" height="16"/>
    <rect x="448" y="432" width="16" height="16"/>
    <rect x="464" y="432" width="16" height="16"/>
    <rect x="480" y="432" width="16" height="16"/>
    <rect x="32" y="448" width="16" height="16"/>
    <rect x="64" y="448" width="16" height="16"/>
    <rect x="80" y="448" width="16" height="16"/>
    <rect x="96" y="448" width="16" height="16"/>
    <rect x="128" y="448" width="16" height="16"/>
    <rect x="160" y="448" width="16" height="16"/>
    <rect x="176" y="448" width="16" height="16"/>
    <rect x="224" y="448" width="16" height="16"/>
    <rect x="304" y="448" width="16" height="16"/>
    <rect x="336" y="448" width="16" height="16"/>
    <rect x="400" y="448" width="16" height="16"/>
    <rect x="416" y="448" width="16" height="16"/>
    <rect x="432" y="448" width="16" height="16"/>
    <rect x="480" y="448" width="16" height="16"/>
    <rect x="32" y="464" width="16" height="16"/>
    <rect x="128" y="464" width="16" height="16"/>
    <rect x="192" y="464" width="16" height="16"/>
    <rect x="224" y="464" width="16" height="16"/>
    <rect x="288" y="464" width="16" height="16"/>
    <rect x="304" y="464" width="16" height="16"/>
    <rect x="320" y="464" width="16" height="16"/>
    <rect x="336" y="464" width="16" height="16"/>
    <rect x="352" y="464" width="16" height="16"/>
    <rect x="384" y="464" width="16" height="16"/>
    <rect x="400" y="464" width="16" height="16"/>
    <rect x="416" y="464" width="16" height="16"/>
    <rect x="464" y="464" width="16" height="16"/>
    <rect x="32" y="480" width="16" height="16"/>
    <rect x="48" y="480" width="16" height="16"/>
    <rect x="64" y="480" width="16" height="16"/>
    <rect x="80" y="480" width="16" height="16"/>
    <rect x="96" y="480" width="16" height="16"/>
    <rect x="112" y="480" width="16" height="16"/>
    <rect x="128" y="480" width="16" height="16"/>
    <rect x="160" y="480" width="16" height="16"/>
    <rect x="192" y="480" width="16" height="16"/>
    <rect x="208" y="480" width="16" height="16"/>
    <rect x="224" y="480" width="16" height="16"/>
    <rect x="240" y="480" width="16" height="16"/>
    <rect x="256" y="480" width="16" height="16"/>
    <rect x="272" y="480" width="16" height="16"/>
    <rect x="288" y="480" width="16" height="16"/>
    <rect x="304" y="480" width="16" height="16"/>
    <rect x="320" y="480" width="16" height="16"/>
    <rect x="336" y="480" width="16" height="16"/>
    <rect x="352" y="480" width="16" height="16"/>
    <rect x="368" y="480" width="16" height="16"/>
    <rect x="384" y="480" width="16" height="16"/>
    <rect x="416" y="480" width="16" height="16"/>
    <rect x="432" y="480" width="16" height="16"/>
    <rect x="464" y="480" width="16" height="16"/>
    <rect x="480" y="480" width="16" height="16"/>
  </g>
</svg>
